G04 #@! TF.FileFunction,Other,Fab,Top*
%FSLAX46Y46*%
G04 Gerber Fmt 4.6, Leading zero omitted, Abs format (unit mm)*
G04 Created by KiCad (PCBNEW 4.0.6) date 01/15/18 08:07:31*
%MOMM*%
%LPD*%
G01*
G04 APERTURE LIST*
%ADD10C,0.100000*%
%ADD11C,0.300000*%
%ADD12C,0.150000*%
%ADD13C,0.075000*%
G04 APERTURE END LIST*
D10*
D11*
X100945714Y-74582571D02*
X100802856Y-74511143D01*
X100731428Y-74439714D01*
X100659999Y-74296857D01*
X100659999Y-73868286D01*
X100731428Y-73725429D01*
X100802856Y-73654000D01*
X100945714Y-73582571D01*
X101159999Y-73582571D01*
X101302856Y-73654000D01*
X101374285Y-73725429D01*
X101445714Y-73868286D01*
X101445714Y-74296857D01*
X101374285Y-74439714D01*
X101302856Y-74511143D01*
X101159999Y-74582571D01*
X100945714Y-74582571D01*
X102088571Y-73582571D02*
X102088571Y-75082571D01*
X102088571Y-73654000D02*
X102231428Y-73582571D01*
X102517142Y-73582571D01*
X102659999Y-73654000D01*
X102731428Y-73725429D01*
X102802857Y-73868286D01*
X102802857Y-74296857D01*
X102731428Y-74439714D01*
X102659999Y-74511143D01*
X102517142Y-74582571D01*
X102231428Y-74582571D01*
X102088571Y-74511143D01*
X103231428Y-73582571D02*
X103802857Y-73582571D01*
X103445714Y-73082571D02*
X103445714Y-74368286D01*
X103517142Y-74511143D01*
X103660000Y-74582571D01*
X103802857Y-74582571D01*
X104302857Y-74582571D02*
X104302857Y-73582571D01*
X104302857Y-73082571D02*
X104231428Y-73154000D01*
X104302857Y-73225429D01*
X104374285Y-73154000D01*
X104302857Y-73082571D01*
X104302857Y-73225429D01*
X105017143Y-73582571D02*
X105017143Y-75082571D01*
X105017143Y-73654000D02*
X105160000Y-73582571D01*
X105445714Y-73582571D01*
X105588571Y-73654000D01*
X105660000Y-73725429D01*
X105731429Y-73868286D01*
X105731429Y-74296857D01*
X105660000Y-74439714D01*
X105588571Y-74511143D01*
X105445714Y-74582571D01*
X105160000Y-74582571D01*
X105017143Y-74511143D01*
X106945714Y-74511143D02*
X106802857Y-74582571D01*
X106517143Y-74582571D01*
X106374286Y-74511143D01*
X106302857Y-74368286D01*
X106302857Y-73796857D01*
X106374286Y-73654000D01*
X106517143Y-73582571D01*
X106802857Y-73582571D01*
X106945714Y-73654000D01*
X107017143Y-73796857D01*
X107017143Y-73939714D01*
X106302857Y-74082571D01*
X107588571Y-74511143D02*
X107731428Y-74582571D01*
X108017143Y-74582571D01*
X108160000Y-74511143D01*
X108231428Y-74368286D01*
X108231428Y-74296857D01*
X108160000Y-74154000D01*
X108017143Y-74082571D01*
X107802857Y-74082571D01*
X107660000Y-74011143D01*
X107588571Y-73868286D01*
X107588571Y-73796857D01*
X107660000Y-73654000D01*
X107802857Y-73582571D01*
X108017143Y-73582571D01*
X108160000Y-73654000D01*
X108802857Y-74511143D02*
X108945714Y-74582571D01*
X109231429Y-74582571D01*
X109374286Y-74511143D01*
X109445714Y-74368286D01*
X109445714Y-74296857D01*
X109374286Y-74154000D01*
X109231429Y-74082571D01*
X109017143Y-74082571D01*
X108874286Y-74011143D01*
X108802857Y-73868286D01*
X108802857Y-73796857D01*
X108874286Y-73654000D01*
X109017143Y-73582571D01*
X109231429Y-73582571D01*
X109374286Y-73654000D01*
X110088572Y-74582571D02*
X110088572Y-73582571D01*
X110088572Y-73082571D02*
X110017143Y-73154000D01*
X110088572Y-73225429D01*
X110160000Y-73154000D01*
X110088572Y-73082571D01*
X110088572Y-73225429D01*
X100481429Y-77061143D02*
X100624286Y-77132571D01*
X100910001Y-77132571D01*
X101052858Y-77061143D01*
X101124286Y-76918286D01*
X101124286Y-76846857D01*
X101052858Y-76704000D01*
X100910001Y-76632571D01*
X100695715Y-76632571D01*
X100552858Y-76561143D01*
X100481429Y-76418286D01*
X100481429Y-76346857D01*
X100552858Y-76204000D01*
X100695715Y-76132571D01*
X100910001Y-76132571D01*
X101052858Y-76204000D01*
X101767144Y-77132571D02*
X101767144Y-75632571D01*
X102410001Y-77132571D02*
X102410001Y-76346857D01*
X102338572Y-76204000D01*
X102195715Y-76132571D01*
X101981430Y-76132571D01*
X101838572Y-76204000D01*
X101767144Y-76275429D01*
X103124287Y-77132571D02*
X103124287Y-76132571D01*
X103124287Y-75632571D02*
X103052858Y-75704000D01*
X103124287Y-75775429D01*
X103195715Y-75704000D01*
X103124287Y-75632571D01*
X103124287Y-75775429D01*
X104410001Y-77061143D02*
X104267144Y-77132571D01*
X103981430Y-77132571D01*
X103838573Y-77061143D01*
X103767144Y-76918286D01*
X103767144Y-76346857D01*
X103838573Y-76204000D01*
X103981430Y-76132571D01*
X104267144Y-76132571D01*
X104410001Y-76204000D01*
X104481430Y-76346857D01*
X104481430Y-76489714D01*
X103767144Y-76632571D01*
X105338573Y-77132571D02*
X105195715Y-77061143D01*
X105124287Y-76918286D01*
X105124287Y-75632571D01*
X106552858Y-77132571D02*
X106552858Y-75632571D01*
X106552858Y-77061143D02*
X106410001Y-77132571D01*
X106124287Y-77132571D01*
X105981429Y-77061143D01*
X105910001Y-76989714D01*
X105838572Y-76846857D01*
X105838572Y-76418286D01*
X105910001Y-76275429D01*
X105981429Y-76204000D01*
X106124287Y-76132571D01*
X106410001Y-76132571D01*
X106552858Y-76204000D01*
X108267144Y-76132571D02*
X108624287Y-77132571D01*
X108981429Y-76132571D01*
X110338572Y-77132571D02*
X109481429Y-77132571D01*
X109910001Y-77132571D02*
X109910001Y-75632571D01*
X109767144Y-75846857D01*
X109624286Y-75989714D01*
X109481429Y-76061143D01*
X98517144Y-79682571D02*
X98517144Y-78182571D01*
X99017144Y-79254000D01*
X99517144Y-78182571D01*
X99517144Y-79682571D01*
X100874287Y-79682571D02*
X100874287Y-78896857D01*
X100802858Y-78754000D01*
X100660001Y-78682571D01*
X100374287Y-78682571D01*
X100231430Y-78754000D01*
X100874287Y-79611143D02*
X100731430Y-79682571D01*
X100374287Y-79682571D01*
X100231430Y-79611143D01*
X100160001Y-79468286D01*
X100160001Y-79325429D01*
X100231430Y-79182571D01*
X100374287Y-79111143D01*
X100731430Y-79111143D01*
X100874287Y-79039714D01*
X101588573Y-79682571D02*
X101588573Y-78682571D01*
X101588573Y-78968286D02*
X101660001Y-78825429D01*
X101731430Y-78754000D01*
X101874287Y-78682571D01*
X102017144Y-78682571D01*
X103160001Y-79611143D02*
X103017144Y-79682571D01*
X102731430Y-79682571D01*
X102588572Y-79611143D01*
X102517144Y-79539714D01*
X102445715Y-79396857D01*
X102445715Y-78968286D01*
X102517144Y-78825429D01*
X102588572Y-78754000D01*
X102731430Y-78682571D01*
X103017144Y-78682571D01*
X103160001Y-78754000D01*
X105445715Y-78896857D02*
X104945715Y-78896857D01*
X104945715Y-79682571D02*
X104945715Y-78182571D01*
X105660001Y-78182571D01*
X106231429Y-79682571D02*
X106231429Y-78682571D01*
X106231429Y-78182571D02*
X106160000Y-78254000D01*
X106231429Y-78325429D01*
X106302857Y-78254000D01*
X106231429Y-78182571D01*
X106231429Y-78325429D01*
X106874286Y-79611143D02*
X107017143Y-79682571D01*
X107302858Y-79682571D01*
X107445715Y-79611143D01*
X107517143Y-79468286D01*
X107517143Y-79396857D01*
X107445715Y-79254000D01*
X107302858Y-79182571D01*
X107088572Y-79182571D01*
X106945715Y-79111143D01*
X106874286Y-78968286D01*
X106874286Y-78896857D01*
X106945715Y-78754000D01*
X107088572Y-78682571D01*
X107302858Y-78682571D01*
X107445715Y-78754000D01*
X108802858Y-79611143D02*
X108660001Y-79682571D01*
X108374287Y-79682571D01*
X108231429Y-79611143D01*
X108160001Y-79539714D01*
X108088572Y-79396857D01*
X108088572Y-78968286D01*
X108160001Y-78825429D01*
X108231429Y-78754000D01*
X108374287Y-78682571D01*
X108660001Y-78682571D01*
X108802858Y-78754000D01*
X109445715Y-79682571D02*
X109445715Y-78182571D01*
X110088572Y-79682571D02*
X110088572Y-78896857D01*
X110017143Y-78754000D01*
X109874286Y-78682571D01*
X109660001Y-78682571D01*
X109517143Y-78754000D01*
X109445715Y-78825429D01*
X111374286Y-79611143D02*
X111231429Y-79682571D01*
X110945715Y-79682571D01*
X110802858Y-79611143D01*
X110731429Y-79468286D01*
X110731429Y-78896857D01*
X110802858Y-78754000D01*
X110945715Y-78682571D01*
X111231429Y-78682571D01*
X111374286Y-78754000D01*
X111445715Y-78896857D01*
X111445715Y-79039714D01*
X110731429Y-79182571D01*
X112088572Y-79682571D02*
X112088572Y-78682571D01*
X112088572Y-78968286D02*
X112160000Y-78825429D01*
X112231429Y-78754000D01*
X112374286Y-78682571D01*
X112517143Y-78682571D01*
D10*
X85558000Y-63318000D02*
X85558000Y-72318000D01*
X82058000Y-63318000D02*
X82058000Y-72318000D01*
X82058000Y-72318000D02*
X96558000Y-72318000D01*
X96558000Y-72318000D02*
X96558000Y-63318000D01*
X96558000Y-63318000D02*
X82058000Y-63318000D01*
X88011000Y-73914000D02*
X89916000Y-73914000D01*
X89916000Y-73914000D02*
X89916000Y-117094000D01*
X89916000Y-117094000D02*
X87376000Y-117094000D01*
X87376000Y-117094000D02*
X87376000Y-74549000D01*
X87376000Y-74549000D02*
X88011000Y-73914000D01*
X135874000Y-85740000D02*
X135874000Y-86980000D01*
X133874000Y-85740000D02*
X135874000Y-85740000D01*
X133874000Y-86980000D02*
X133874000Y-85740000D01*
X135874000Y-86980000D02*
X133874000Y-86980000D01*
X135874000Y-76596000D02*
X135874000Y-77836000D01*
X133874000Y-76596000D02*
X135874000Y-76596000D01*
X133874000Y-77836000D02*
X133874000Y-76596000D01*
X135874000Y-77836000D02*
X133874000Y-77836000D01*
X125080000Y-73390000D02*
X123840000Y-73390000D01*
X125080000Y-71390000D02*
X125080000Y-73390000D01*
X123840000Y-71390000D02*
X125080000Y-71390000D01*
X123840000Y-73390000D02*
X123840000Y-71390000D01*
X138542000Y-73136000D02*
X137302000Y-73136000D01*
X138542000Y-71136000D02*
X138542000Y-73136000D01*
X137302000Y-71136000D02*
X138542000Y-71136000D01*
X137302000Y-73136000D02*
X137302000Y-71136000D01*
X122540000Y-73390000D02*
X121300000Y-73390000D01*
X122540000Y-71390000D02*
X122540000Y-73390000D01*
X121300000Y-71390000D02*
X122540000Y-71390000D01*
X121300000Y-73390000D02*
X121300000Y-71390000D01*
X120000000Y-73390000D02*
X118760000Y-73390000D01*
X120000000Y-71390000D02*
X120000000Y-73390000D01*
X118760000Y-71390000D02*
X120000000Y-71390000D01*
X118760000Y-73390000D02*
X118760000Y-71390000D01*
X146562000Y-87110000D02*
X146562000Y-81110000D01*
X140562000Y-87110000D02*
X140562000Y-81110000D01*
X146562000Y-87110000D02*
X140562000Y-87110000D01*
X146562000Y-81110000D02*
X140562000Y-81110000D01*
X146562000Y-77966000D02*
X146562000Y-71966000D01*
X140562000Y-77966000D02*
X140562000Y-71966000D01*
X146562000Y-77966000D02*
X140562000Y-77966000D01*
X146562000Y-71966000D02*
X140562000Y-71966000D01*
X94552000Y-106712000D02*
X94552000Y-109962000D01*
X94552000Y-109962000D02*
X102552000Y-109962000D01*
X102552000Y-109962000D02*
X102552000Y-106712000D01*
X102552000Y-106712000D02*
X94552000Y-106712000D01*
X96952000Y-106712000D02*
X96952000Y-109962000D01*
X100152000Y-106712000D02*
X100152000Y-109962000D01*
X94552000Y-101632000D02*
X94552000Y-104882000D01*
X94552000Y-104882000D02*
X102552000Y-104882000D01*
X102552000Y-104882000D02*
X102552000Y-101632000D01*
X102552000Y-101632000D02*
X94552000Y-101632000D01*
X96952000Y-101632000D02*
X96952000Y-104882000D01*
X100152000Y-101632000D02*
X100152000Y-104882000D01*
X94552000Y-96552000D02*
X94552000Y-99802000D01*
X94552000Y-99802000D02*
X102552000Y-99802000D01*
X102552000Y-99802000D02*
X102552000Y-96552000D01*
X102552000Y-96552000D02*
X94552000Y-96552000D01*
X96952000Y-96552000D02*
X96952000Y-99802000D01*
X100152000Y-96552000D02*
X100152000Y-99802000D01*
X97346000Y-91472000D02*
X97346000Y-94722000D01*
X97346000Y-94722000D02*
X105346000Y-94722000D01*
X105346000Y-94722000D02*
X105346000Y-91472000D01*
X105346000Y-91472000D02*
X97346000Y-91472000D01*
X99746000Y-91472000D02*
X99746000Y-94722000D01*
X102946000Y-91472000D02*
X102946000Y-94722000D01*
X113982000Y-110712000D02*
X113982000Y-107462000D01*
X113982000Y-107462000D02*
X105982000Y-107462000D01*
X105982000Y-107462000D02*
X105982000Y-110712000D01*
X105982000Y-110712000D02*
X113982000Y-110712000D01*
X111582000Y-110712000D02*
X111582000Y-107462000D01*
X108382000Y-110712000D02*
X108382000Y-107462000D01*
X113982000Y-105632000D02*
X113982000Y-102382000D01*
X113982000Y-102382000D02*
X105982000Y-102382000D01*
X105982000Y-102382000D02*
X105982000Y-105632000D01*
X105982000Y-105632000D02*
X113982000Y-105632000D01*
X111582000Y-105632000D02*
X111582000Y-102382000D01*
X108382000Y-105632000D02*
X108382000Y-102382000D01*
X113982000Y-100552000D02*
X113982000Y-97302000D01*
X113982000Y-97302000D02*
X105982000Y-97302000D01*
X105982000Y-97302000D02*
X105982000Y-100552000D01*
X105982000Y-100552000D02*
X113982000Y-100552000D01*
X111582000Y-100552000D02*
X111582000Y-97302000D01*
X108382000Y-100552000D02*
X108382000Y-97302000D01*
X108522000Y-91472000D02*
X108522000Y-94722000D01*
X108522000Y-94722000D02*
X116522000Y-94722000D01*
X116522000Y-94722000D02*
X116522000Y-91472000D01*
X116522000Y-91472000D02*
X108522000Y-91472000D01*
X110922000Y-91472000D02*
X110922000Y-94722000D01*
X114122000Y-91472000D02*
X114122000Y-94722000D01*
X123762000Y-106712000D02*
X123762000Y-109962000D01*
X123762000Y-109962000D02*
X131762000Y-109962000D01*
X131762000Y-109962000D02*
X131762000Y-106712000D01*
X131762000Y-106712000D02*
X123762000Y-106712000D01*
X126162000Y-106712000D02*
X126162000Y-109962000D01*
X129362000Y-106712000D02*
X129362000Y-109962000D01*
X123762000Y-101632000D02*
X123762000Y-104882000D01*
X123762000Y-104882000D02*
X131762000Y-104882000D01*
X131762000Y-104882000D02*
X131762000Y-101632000D01*
X131762000Y-101632000D02*
X123762000Y-101632000D01*
X126162000Y-101632000D02*
X126162000Y-104882000D01*
X129362000Y-101632000D02*
X129362000Y-104882000D01*
X123762000Y-96552000D02*
X123762000Y-99802000D01*
X123762000Y-99802000D02*
X131762000Y-99802000D01*
X131762000Y-99802000D02*
X131762000Y-96552000D01*
X131762000Y-96552000D02*
X123762000Y-96552000D01*
X126162000Y-96552000D02*
X126162000Y-99802000D01*
X129362000Y-96552000D02*
X129362000Y-99802000D01*
X121222000Y-91472000D02*
X121222000Y-94722000D01*
X121222000Y-94722000D02*
X129222000Y-94722000D01*
X129222000Y-94722000D02*
X129222000Y-91472000D01*
X129222000Y-91472000D02*
X121222000Y-91472000D01*
X123622000Y-91472000D02*
X123622000Y-94722000D01*
X126822000Y-91472000D02*
X126822000Y-94722000D01*
X144970000Y-100552000D02*
X144970000Y-97302000D01*
X144970000Y-97302000D02*
X136970000Y-97302000D01*
X136970000Y-97302000D02*
X136970000Y-100552000D01*
X136970000Y-100552000D02*
X144970000Y-100552000D01*
X142570000Y-100552000D02*
X142570000Y-97302000D01*
X139370000Y-100552000D02*
X139370000Y-97302000D01*
X144970000Y-105632000D02*
X144970000Y-102382000D01*
X144970000Y-102382000D02*
X136970000Y-102382000D01*
X136970000Y-102382000D02*
X136970000Y-105632000D01*
X136970000Y-105632000D02*
X144970000Y-105632000D01*
X142570000Y-105632000D02*
X142570000Y-102382000D01*
X139370000Y-105632000D02*
X139370000Y-102382000D01*
X144970000Y-110712000D02*
X144970000Y-107462000D01*
X144970000Y-107462000D02*
X136970000Y-107462000D01*
X136970000Y-107462000D02*
X136970000Y-110712000D01*
X136970000Y-110712000D02*
X144970000Y-110712000D01*
X142570000Y-110712000D02*
X142570000Y-107462000D01*
X139370000Y-110712000D02*
X139370000Y-107462000D01*
X139510000Y-91218000D02*
X139510000Y-94468000D01*
X139510000Y-94468000D02*
X147510000Y-94468000D01*
X147510000Y-94468000D02*
X147510000Y-91218000D01*
X147510000Y-91218000D02*
X139510000Y-91218000D01*
X141910000Y-91218000D02*
X141910000Y-94468000D01*
X145110000Y-91218000D02*
X145110000Y-94468000D01*
D12*
X85153238Y-62246571D02*
X85296095Y-62294190D01*
X85343714Y-62341810D01*
X85391333Y-62437048D01*
X85391333Y-62579905D01*
X85343714Y-62675143D01*
X85296095Y-62722762D01*
X85200857Y-62770381D01*
X84819904Y-62770381D01*
X84819904Y-61770381D01*
X85153238Y-61770381D01*
X85248476Y-61818000D01*
X85296095Y-61865619D01*
X85343714Y-61960857D01*
X85343714Y-62056095D01*
X85296095Y-62151333D01*
X85248476Y-62198952D01*
X85153238Y-62246571D01*
X84819904Y-62246571D01*
X85772285Y-62484667D02*
X86248476Y-62484667D01*
X85677047Y-62770381D02*
X86010380Y-61770381D01*
X86343714Y-62770381D01*
X87248476Y-62770381D02*
X86915142Y-62294190D01*
X86677047Y-62770381D02*
X86677047Y-61770381D01*
X87058000Y-61770381D01*
X87153238Y-61818000D01*
X87200857Y-61865619D01*
X87248476Y-61960857D01*
X87248476Y-62103714D01*
X87200857Y-62198952D01*
X87153238Y-62246571D01*
X87058000Y-62294190D01*
X86677047Y-62294190D01*
X88248476Y-62770381D02*
X87915142Y-62294190D01*
X87677047Y-62770381D02*
X87677047Y-61770381D01*
X88058000Y-61770381D01*
X88153238Y-61818000D01*
X88200857Y-61865619D01*
X88248476Y-61960857D01*
X88248476Y-62103714D01*
X88200857Y-62198952D01*
X88153238Y-62246571D01*
X88058000Y-62294190D01*
X87677047Y-62294190D01*
X88677047Y-62246571D02*
X89010381Y-62246571D01*
X89153238Y-62770381D02*
X88677047Y-62770381D01*
X88677047Y-61770381D01*
X89153238Y-61770381D01*
X90058000Y-62770381D02*
X89581809Y-62770381D01*
X89581809Y-61770381D01*
X90153238Y-62865619D02*
X90915143Y-62865619D01*
X91438953Y-61770381D02*
X91438953Y-62484667D01*
X91391333Y-62627524D01*
X91296095Y-62722762D01*
X91153238Y-62770381D01*
X91058000Y-62770381D01*
X91867524Y-62484667D02*
X92343715Y-62484667D01*
X91772286Y-62770381D02*
X92105619Y-61770381D01*
X92438953Y-62770381D01*
X93343715Y-62675143D02*
X93296096Y-62722762D01*
X93153239Y-62770381D01*
X93058001Y-62770381D01*
X92915143Y-62722762D01*
X92819905Y-62627524D01*
X92772286Y-62532286D01*
X92724667Y-62341810D01*
X92724667Y-62198952D01*
X92772286Y-62008476D01*
X92819905Y-61913238D01*
X92915143Y-61818000D01*
X93058001Y-61770381D01*
X93153239Y-61770381D01*
X93296096Y-61818000D01*
X93343715Y-61865619D01*
X93772286Y-62770381D02*
X93772286Y-61770381D01*
X94343715Y-62770381D02*
X93915143Y-62198952D01*
X94343715Y-61770381D02*
X93772286Y-62341810D01*
X84622191Y-118511143D02*
X84574572Y-118558762D01*
X84431715Y-118606381D01*
X84336477Y-118606381D01*
X84193619Y-118558762D01*
X84098381Y-118463524D01*
X84050762Y-118368286D01*
X84003143Y-118177810D01*
X84003143Y-118034952D01*
X84050762Y-117844476D01*
X84098381Y-117749238D01*
X84193619Y-117654000D01*
X84336477Y-117606381D01*
X84431715Y-117606381D01*
X84574572Y-117654000D01*
X84622191Y-117701619D01*
X85241238Y-117606381D02*
X85431715Y-117606381D01*
X85526953Y-117654000D01*
X85622191Y-117749238D01*
X85669810Y-117939714D01*
X85669810Y-118273048D01*
X85622191Y-118463524D01*
X85526953Y-118558762D01*
X85431715Y-118606381D01*
X85241238Y-118606381D01*
X85146000Y-118558762D01*
X85050762Y-118463524D01*
X85003143Y-118273048D01*
X85003143Y-117939714D01*
X85050762Y-117749238D01*
X85146000Y-117654000D01*
X85241238Y-117606381D01*
X86098381Y-118606381D02*
X86098381Y-117606381D01*
X86669810Y-118606381D01*
X86669810Y-117606381D01*
X87146000Y-118606381D02*
X87146000Y-117606381D01*
X87717429Y-118606381D01*
X87717429Y-117606381D01*
X87955524Y-118701619D02*
X88717429Y-118701619D01*
X89146000Y-117606381D02*
X89241239Y-117606381D01*
X89336477Y-117654000D01*
X89384096Y-117701619D01*
X89431715Y-117796857D01*
X89479334Y-117987333D01*
X89479334Y-118225429D01*
X89431715Y-118415905D01*
X89384096Y-118511143D01*
X89336477Y-118558762D01*
X89241239Y-118606381D01*
X89146000Y-118606381D01*
X89050762Y-118558762D01*
X89003143Y-118511143D01*
X88955524Y-118415905D01*
X88907905Y-118225429D01*
X88907905Y-117987333D01*
X88955524Y-117796857D01*
X89003143Y-117701619D01*
X89050762Y-117654000D01*
X89146000Y-117606381D01*
X90431715Y-118606381D02*
X89860286Y-118606381D01*
X90146000Y-118606381D02*
X90146000Y-117606381D01*
X90050762Y-117749238D01*
X89955524Y-117844476D01*
X89860286Y-117892095D01*
X90765048Y-117606381D02*
X91431715Y-118606381D01*
X91431715Y-117606381D02*
X90765048Y-118606381D01*
X92336477Y-118606381D02*
X91765048Y-118606381D01*
X92050762Y-118606381D02*
X92050762Y-117606381D01*
X91955524Y-117749238D01*
X91860286Y-117844476D01*
X91765048Y-117892095D01*
X92669810Y-117606381D02*
X93336477Y-117606381D01*
X92907905Y-118606381D01*
X88098381Y-95837333D02*
X88812667Y-95837333D01*
X88955524Y-95884953D01*
X89050762Y-95980191D01*
X89098381Y-96123048D01*
X89098381Y-96218286D01*
X88193619Y-95408762D02*
X88146000Y-95361143D01*
X88098381Y-95265905D01*
X88098381Y-95027809D01*
X88146000Y-94932571D01*
X88193619Y-94884952D01*
X88288857Y-94837333D01*
X88384095Y-94837333D01*
X88526952Y-94884952D01*
X89098381Y-95456381D01*
X89098381Y-94837333D01*
X134278762Y-85062381D02*
X133707333Y-85062381D01*
X133993047Y-85062381D02*
X133993047Y-84062381D01*
X133897809Y-84205238D01*
X133802571Y-84300476D01*
X133707333Y-84348095D01*
X134897809Y-84062381D02*
X134993048Y-84062381D01*
X135088286Y-84110000D01*
X135135905Y-84157619D01*
X135183524Y-84252857D01*
X135231143Y-84443333D01*
X135231143Y-84681429D01*
X135183524Y-84871905D01*
X135135905Y-84967143D01*
X135088286Y-85014762D01*
X134993048Y-85062381D01*
X134897809Y-85062381D01*
X134802571Y-85014762D01*
X134754952Y-84967143D01*
X134707333Y-84871905D01*
X134659714Y-84681429D01*
X134659714Y-84443333D01*
X134707333Y-84252857D01*
X134754952Y-84157619D01*
X134802571Y-84110000D01*
X134897809Y-84062381D01*
X135659714Y-85062381D02*
X135659714Y-84062381D01*
X135754952Y-84681429D02*
X136040667Y-85062381D01*
X136040667Y-84395714D02*
X135659714Y-84776667D01*
D13*
X134790667Y-86586190D02*
X134624000Y-86348095D01*
X134504953Y-86586190D02*
X134504953Y-86086190D01*
X134695429Y-86086190D01*
X134743048Y-86110000D01*
X134766857Y-86133810D01*
X134790667Y-86181429D01*
X134790667Y-86252857D01*
X134766857Y-86300476D01*
X134743048Y-86324286D01*
X134695429Y-86348095D01*
X134504953Y-86348095D01*
X135266857Y-86586190D02*
X134981143Y-86586190D01*
X135124000Y-86586190D02*
X135124000Y-86086190D01*
X135076381Y-86157619D01*
X135028762Y-86205238D01*
X134981143Y-86229048D01*
D12*
X134278762Y-75918381D02*
X133707333Y-75918381D01*
X133993047Y-75918381D02*
X133993047Y-74918381D01*
X133897809Y-75061238D01*
X133802571Y-75156476D01*
X133707333Y-75204095D01*
X134897809Y-74918381D02*
X134993048Y-74918381D01*
X135088286Y-74966000D01*
X135135905Y-75013619D01*
X135183524Y-75108857D01*
X135231143Y-75299333D01*
X135231143Y-75537429D01*
X135183524Y-75727905D01*
X135135905Y-75823143D01*
X135088286Y-75870762D01*
X134993048Y-75918381D01*
X134897809Y-75918381D01*
X134802571Y-75870762D01*
X134754952Y-75823143D01*
X134707333Y-75727905D01*
X134659714Y-75537429D01*
X134659714Y-75299333D01*
X134707333Y-75108857D01*
X134754952Y-75013619D01*
X134802571Y-74966000D01*
X134897809Y-74918381D01*
X135659714Y-75918381D02*
X135659714Y-74918381D01*
X135754952Y-75537429D02*
X136040667Y-75918381D01*
X136040667Y-75251714D02*
X135659714Y-75632667D01*
D13*
X134790667Y-77442190D02*
X134624000Y-77204095D01*
X134504953Y-77442190D02*
X134504953Y-76942190D01*
X134695429Y-76942190D01*
X134743048Y-76966000D01*
X134766857Y-76989810D01*
X134790667Y-77037429D01*
X134790667Y-77108857D01*
X134766857Y-77156476D01*
X134743048Y-77180286D01*
X134695429Y-77204095D01*
X134504953Y-77204095D01*
X134981143Y-76989810D02*
X135004953Y-76966000D01*
X135052572Y-76942190D01*
X135171619Y-76942190D01*
X135219238Y-76966000D01*
X135243048Y-76989810D01*
X135266857Y-77037429D01*
X135266857Y-77085048D01*
X135243048Y-77156476D01*
X134957334Y-77442190D01*
X135266857Y-77442190D01*
D12*
X123642381Y-72985238D02*
X123642381Y-73556667D01*
X123642381Y-73270953D02*
X122642381Y-73270953D01*
X122785238Y-73366191D01*
X122880476Y-73461429D01*
X122928095Y-73556667D01*
X122642381Y-72366191D02*
X122642381Y-72270952D01*
X122690000Y-72175714D01*
X122737619Y-72128095D01*
X122832857Y-72080476D01*
X123023333Y-72032857D01*
X123261429Y-72032857D01*
X123451905Y-72080476D01*
X123547143Y-72128095D01*
X123594762Y-72175714D01*
X123642381Y-72270952D01*
X123642381Y-72366191D01*
X123594762Y-72461429D01*
X123547143Y-72509048D01*
X123451905Y-72556667D01*
X123261429Y-72604286D01*
X123023333Y-72604286D01*
X122832857Y-72556667D01*
X122737619Y-72509048D01*
X122690000Y-72461429D01*
X122642381Y-72366191D01*
X123642381Y-71604286D02*
X122642381Y-71604286D01*
X123261429Y-71509048D02*
X123642381Y-71223333D01*
X122975714Y-71223333D02*
X123356667Y-71604286D01*
D13*
X124686190Y-72473333D02*
X124448095Y-72640000D01*
X124686190Y-72759047D02*
X124186190Y-72759047D01*
X124186190Y-72568571D01*
X124210000Y-72520952D01*
X124233810Y-72497143D01*
X124281429Y-72473333D01*
X124352857Y-72473333D01*
X124400476Y-72497143D01*
X124424286Y-72520952D01*
X124448095Y-72568571D01*
X124448095Y-72759047D01*
X124186190Y-72306666D02*
X124186190Y-71997143D01*
X124376667Y-72163809D01*
X124376667Y-72092381D01*
X124400476Y-72044762D01*
X124424286Y-72020952D01*
X124471905Y-71997143D01*
X124590952Y-71997143D01*
X124638571Y-72020952D01*
X124662381Y-72044762D01*
X124686190Y-72092381D01*
X124686190Y-72235238D01*
X124662381Y-72282857D01*
X124638571Y-72306666D01*
D12*
X136850381Y-72731238D02*
X136850381Y-73302667D01*
X136850381Y-73016953D02*
X135850381Y-73016953D01*
X135993238Y-73112191D01*
X136088476Y-73207429D01*
X136136095Y-73302667D01*
X135850381Y-72112191D02*
X135850381Y-72016952D01*
X135898000Y-71921714D01*
X135945619Y-71874095D01*
X136040857Y-71826476D01*
X136231333Y-71778857D01*
X136469429Y-71778857D01*
X136659905Y-71826476D01*
X136755143Y-71874095D01*
X136802762Y-71921714D01*
X136850381Y-72016952D01*
X136850381Y-72112191D01*
X136802762Y-72207429D01*
X136755143Y-72255048D01*
X136659905Y-72302667D01*
X136469429Y-72350286D01*
X136231333Y-72350286D01*
X136040857Y-72302667D01*
X135945619Y-72255048D01*
X135898000Y-72207429D01*
X135850381Y-72112191D01*
X136850381Y-71350286D02*
X135850381Y-71350286D01*
X136469429Y-71255048D02*
X136850381Y-70969333D01*
X136183714Y-70969333D02*
X136564667Y-71350286D01*
D13*
X138148190Y-72219333D02*
X137910095Y-72386000D01*
X138148190Y-72505047D02*
X137648190Y-72505047D01*
X137648190Y-72314571D01*
X137672000Y-72266952D01*
X137695810Y-72243143D01*
X137743429Y-72219333D01*
X137814857Y-72219333D01*
X137862476Y-72243143D01*
X137886286Y-72266952D01*
X137910095Y-72314571D01*
X137910095Y-72505047D01*
X137814857Y-71790762D02*
X138148190Y-71790762D01*
X137624381Y-71909809D02*
X137981524Y-72028857D01*
X137981524Y-71719333D01*
D12*
X121102381Y-72985238D02*
X121102381Y-73556667D01*
X121102381Y-73270953D02*
X120102381Y-73270953D01*
X120245238Y-73366191D01*
X120340476Y-73461429D01*
X120388095Y-73556667D01*
X120102381Y-72366191D02*
X120102381Y-72270952D01*
X120150000Y-72175714D01*
X120197619Y-72128095D01*
X120292857Y-72080476D01*
X120483333Y-72032857D01*
X120721429Y-72032857D01*
X120911905Y-72080476D01*
X121007143Y-72128095D01*
X121054762Y-72175714D01*
X121102381Y-72270952D01*
X121102381Y-72366191D01*
X121054762Y-72461429D01*
X121007143Y-72509048D01*
X120911905Y-72556667D01*
X120721429Y-72604286D01*
X120483333Y-72604286D01*
X120292857Y-72556667D01*
X120197619Y-72509048D01*
X120150000Y-72461429D01*
X120102381Y-72366191D01*
X121102381Y-71604286D02*
X120102381Y-71604286D01*
X120721429Y-71509048D02*
X121102381Y-71223333D01*
X120435714Y-71223333D02*
X120816667Y-71604286D01*
D13*
X122146190Y-72473333D02*
X121908095Y-72640000D01*
X122146190Y-72759047D02*
X121646190Y-72759047D01*
X121646190Y-72568571D01*
X121670000Y-72520952D01*
X121693810Y-72497143D01*
X121741429Y-72473333D01*
X121812857Y-72473333D01*
X121860476Y-72497143D01*
X121884286Y-72520952D01*
X121908095Y-72568571D01*
X121908095Y-72759047D01*
X121646190Y-72020952D02*
X121646190Y-72259047D01*
X121884286Y-72282857D01*
X121860476Y-72259047D01*
X121836667Y-72211428D01*
X121836667Y-72092381D01*
X121860476Y-72044762D01*
X121884286Y-72020952D01*
X121931905Y-71997143D01*
X122050952Y-71997143D01*
X122098571Y-72020952D01*
X122122381Y-72044762D01*
X122146190Y-72092381D01*
X122146190Y-72211428D01*
X122122381Y-72259047D01*
X122098571Y-72282857D01*
D12*
X118308381Y-72985238D02*
X118308381Y-73556667D01*
X118308381Y-73270953D02*
X117308381Y-73270953D01*
X117451238Y-73366191D01*
X117546476Y-73461429D01*
X117594095Y-73556667D01*
X117308381Y-72366191D02*
X117308381Y-72270952D01*
X117356000Y-72175714D01*
X117403619Y-72128095D01*
X117498857Y-72080476D01*
X117689333Y-72032857D01*
X117927429Y-72032857D01*
X118117905Y-72080476D01*
X118213143Y-72128095D01*
X118260762Y-72175714D01*
X118308381Y-72270952D01*
X118308381Y-72366191D01*
X118260762Y-72461429D01*
X118213143Y-72509048D01*
X118117905Y-72556667D01*
X117927429Y-72604286D01*
X117689333Y-72604286D01*
X117498857Y-72556667D01*
X117403619Y-72509048D01*
X117356000Y-72461429D01*
X117308381Y-72366191D01*
X118308381Y-71604286D02*
X117308381Y-71604286D01*
X117927429Y-71509048D02*
X118308381Y-71223333D01*
X117641714Y-71223333D02*
X118022667Y-71604286D01*
D13*
X119606190Y-72473333D02*
X119368095Y-72640000D01*
X119606190Y-72759047D02*
X119106190Y-72759047D01*
X119106190Y-72568571D01*
X119130000Y-72520952D01*
X119153810Y-72497143D01*
X119201429Y-72473333D01*
X119272857Y-72473333D01*
X119320476Y-72497143D01*
X119344286Y-72520952D01*
X119368095Y-72568571D01*
X119368095Y-72759047D01*
X119106190Y-72044762D02*
X119106190Y-72140000D01*
X119130000Y-72187619D01*
X119153810Y-72211428D01*
X119225238Y-72259047D01*
X119320476Y-72282857D01*
X119510952Y-72282857D01*
X119558571Y-72259047D01*
X119582381Y-72235238D01*
X119606190Y-72187619D01*
X119606190Y-72092381D01*
X119582381Y-72044762D01*
X119558571Y-72020952D01*
X119510952Y-71997143D01*
X119391905Y-71997143D01*
X119344286Y-72020952D01*
X119320476Y-72044762D01*
X119296667Y-72092381D01*
X119296667Y-72187619D01*
X119320476Y-72235238D01*
X119344286Y-72259047D01*
X119391905Y-72282857D01*
D12*
X140945333Y-79312381D02*
X141135810Y-79312381D01*
X141231048Y-79360000D01*
X141326286Y-79455238D01*
X141373905Y-79645714D01*
X141373905Y-79979048D01*
X141326286Y-80169524D01*
X141231048Y-80264762D01*
X141135810Y-80312381D01*
X140945333Y-80312381D01*
X140850095Y-80264762D01*
X140754857Y-80169524D01*
X140707238Y-79979048D01*
X140707238Y-79645714D01*
X140754857Y-79455238D01*
X140850095Y-79360000D01*
X140945333Y-79312381D01*
X141802476Y-79645714D02*
X141802476Y-80645714D01*
X141802476Y-79693333D02*
X141897714Y-79645714D01*
X142088191Y-79645714D01*
X142183429Y-79693333D01*
X142231048Y-79740952D01*
X142278667Y-79836190D01*
X142278667Y-80121905D01*
X142231048Y-80217143D01*
X142183429Y-80264762D01*
X142088191Y-80312381D01*
X141897714Y-80312381D01*
X141802476Y-80264762D01*
X142564381Y-79645714D02*
X142945333Y-79645714D01*
X142707238Y-79312381D02*
X142707238Y-80169524D01*
X142754857Y-80264762D01*
X142850095Y-80312381D01*
X142945333Y-80312381D01*
X143278667Y-80312381D02*
X143278667Y-79645714D01*
X143278667Y-79312381D02*
X143231048Y-79360000D01*
X143278667Y-79407619D01*
X143326286Y-79360000D01*
X143278667Y-79312381D01*
X143278667Y-79407619D01*
X143754857Y-80312381D02*
X143754857Y-79645714D01*
X143754857Y-79740952D02*
X143802476Y-79693333D01*
X143897714Y-79645714D01*
X144040572Y-79645714D01*
X144135810Y-79693333D01*
X144183429Y-79788571D01*
X144183429Y-80312381D01*
X144183429Y-79788571D02*
X144231048Y-79693333D01*
X144326286Y-79645714D01*
X144469143Y-79645714D01*
X144564381Y-79693333D01*
X144612000Y-79788571D01*
X144612000Y-80312381D01*
X145088190Y-80312381D02*
X145088190Y-79645714D01*
X145088190Y-79312381D02*
X145040571Y-79360000D01*
X145088190Y-79407619D01*
X145135809Y-79360000D01*
X145088190Y-79312381D01*
X145088190Y-79407619D01*
X145516761Y-80264762D02*
X145611999Y-80312381D01*
X145802475Y-80312381D01*
X145897714Y-80264762D01*
X145945333Y-80169524D01*
X145945333Y-80121905D01*
X145897714Y-80026667D01*
X145802475Y-79979048D01*
X145659618Y-79979048D01*
X145564380Y-79931429D01*
X145516761Y-79836190D01*
X145516761Y-79788571D01*
X145564380Y-79693333D01*
X145659618Y-79645714D01*
X145802475Y-79645714D01*
X145897714Y-79693333D01*
X146231047Y-79645714D02*
X146611999Y-79645714D01*
X146373904Y-79312381D02*
X146373904Y-80169524D01*
X146421523Y-80264762D01*
X146516761Y-80312381D01*
X146611999Y-80312381D01*
X142228667Y-84514762D02*
X142371524Y-84562381D01*
X142609620Y-84562381D01*
X142704858Y-84514762D01*
X142752477Y-84467143D01*
X142800096Y-84371905D01*
X142800096Y-84276667D01*
X142752477Y-84181429D01*
X142704858Y-84133810D01*
X142609620Y-84086190D01*
X142419143Y-84038571D01*
X142323905Y-83990952D01*
X142276286Y-83943333D01*
X142228667Y-83848095D01*
X142228667Y-83752857D01*
X142276286Y-83657619D01*
X142323905Y-83610000D01*
X142419143Y-83562381D01*
X142657239Y-83562381D01*
X142800096Y-83610000D01*
X143133429Y-83562381D02*
X143371524Y-84562381D01*
X143562001Y-83848095D01*
X143752477Y-84562381D01*
X143990572Y-83562381D01*
X144895334Y-84562381D02*
X144323905Y-84562381D01*
X144609619Y-84562381D02*
X144609619Y-83562381D01*
X144514381Y-83705238D01*
X144419143Y-83800476D01*
X144323905Y-83848095D01*
X140278667Y-71168381D02*
X140278667Y-70168381D01*
X140659620Y-70168381D01*
X140754858Y-70216000D01*
X140802477Y-70263619D01*
X140850096Y-70358857D01*
X140850096Y-70501714D01*
X140802477Y-70596952D01*
X140754858Y-70644571D01*
X140659620Y-70692190D01*
X140278667Y-70692190D01*
X141659620Y-71120762D02*
X141564382Y-71168381D01*
X141373905Y-71168381D01*
X141278667Y-71120762D01*
X141231048Y-71025524D01*
X141231048Y-70644571D01*
X141278667Y-70549333D01*
X141373905Y-70501714D01*
X141564382Y-70501714D01*
X141659620Y-70549333D01*
X141707239Y-70644571D01*
X141707239Y-70739810D01*
X141231048Y-70835048D01*
X142088191Y-71120762D02*
X142183429Y-71168381D01*
X142373905Y-71168381D01*
X142469144Y-71120762D01*
X142516763Y-71025524D01*
X142516763Y-70977905D01*
X142469144Y-70882667D01*
X142373905Y-70835048D01*
X142231048Y-70835048D01*
X142135810Y-70787429D01*
X142088191Y-70692190D01*
X142088191Y-70644571D01*
X142135810Y-70549333D01*
X142231048Y-70501714D01*
X142373905Y-70501714D01*
X142469144Y-70549333D01*
X142897715Y-71120762D02*
X142992953Y-71168381D01*
X143183429Y-71168381D01*
X143278668Y-71120762D01*
X143326287Y-71025524D01*
X143326287Y-70977905D01*
X143278668Y-70882667D01*
X143183429Y-70835048D01*
X143040572Y-70835048D01*
X142945334Y-70787429D01*
X142897715Y-70692190D01*
X142897715Y-70644571D01*
X142945334Y-70549333D01*
X143040572Y-70501714D01*
X143183429Y-70501714D01*
X143278668Y-70549333D01*
X143754858Y-71168381D02*
X143754858Y-70501714D01*
X143754858Y-70168381D02*
X143707239Y-70216000D01*
X143754858Y-70263619D01*
X143802477Y-70216000D01*
X143754858Y-70168381D01*
X143754858Y-70263619D01*
X144231048Y-71168381D02*
X144231048Y-70501714D01*
X144231048Y-70596952D02*
X144278667Y-70549333D01*
X144373905Y-70501714D01*
X144516763Y-70501714D01*
X144612001Y-70549333D01*
X144659620Y-70644571D01*
X144659620Y-71168381D01*
X144659620Y-70644571D02*
X144707239Y-70549333D01*
X144802477Y-70501714D01*
X144945334Y-70501714D01*
X145040572Y-70549333D01*
X145088191Y-70644571D01*
X145088191Y-71168381D01*
X145564381Y-71168381D02*
X145564381Y-70501714D01*
X145564381Y-70168381D02*
X145516762Y-70216000D01*
X145564381Y-70263619D01*
X145612000Y-70216000D01*
X145564381Y-70168381D01*
X145564381Y-70263619D01*
X145992952Y-71120762D02*
X146088190Y-71168381D01*
X146278666Y-71168381D01*
X146373905Y-71120762D01*
X146421524Y-71025524D01*
X146421524Y-70977905D01*
X146373905Y-70882667D01*
X146278666Y-70835048D01*
X146135809Y-70835048D01*
X146040571Y-70787429D01*
X145992952Y-70692190D01*
X145992952Y-70644571D01*
X146040571Y-70549333D01*
X146135809Y-70501714D01*
X146278666Y-70501714D01*
X146373905Y-70549333D01*
X146707238Y-70501714D02*
X147088190Y-70501714D01*
X146850095Y-70168381D02*
X146850095Y-71025524D01*
X146897714Y-71120762D01*
X146992952Y-71168381D01*
X147088190Y-71168381D01*
X142228667Y-75370762D02*
X142371524Y-75418381D01*
X142609620Y-75418381D01*
X142704858Y-75370762D01*
X142752477Y-75323143D01*
X142800096Y-75227905D01*
X142800096Y-75132667D01*
X142752477Y-75037429D01*
X142704858Y-74989810D01*
X142609620Y-74942190D01*
X142419143Y-74894571D01*
X142323905Y-74846952D01*
X142276286Y-74799333D01*
X142228667Y-74704095D01*
X142228667Y-74608857D01*
X142276286Y-74513619D01*
X142323905Y-74466000D01*
X142419143Y-74418381D01*
X142657239Y-74418381D01*
X142800096Y-74466000D01*
X143133429Y-74418381D02*
X143371524Y-75418381D01*
X143562001Y-74704095D01*
X143752477Y-75418381D01*
X143990572Y-74418381D01*
X144323905Y-74513619D02*
X144371524Y-74466000D01*
X144466762Y-74418381D01*
X144704858Y-74418381D01*
X144800096Y-74466000D01*
X144847715Y-74513619D01*
X144895334Y-74608857D01*
X144895334Y-74704095D01*
X144847715Y-74846952D01*
X144276286Y-75418381D01*
X144895334Y-75418381D01*
X96694858Y-111910571D02*
X96837715Y-111958190D01*
X96885334Y-112005810D01*
X96932953Y-112101048D01*
X96932953Y-112243905D01*
X96885334Y-112339143D01*
X96837715Y-112386762D01*
X96742477Y-112434381D01*
X96361524Y-112434381D01*
X96361524Y-111434381D01*
X96694858Y-111434381D01*
X96790096Y-111482000D01*
X96837715Y-111529619D01*
X96885334Y-111624857D01*
X96885334Y-111720095D01*
X96837715Y-111815333D01*
X96790096Y-111862952D01*
X96694858Y-111910571D01*
X96361524Y-111910571D01*
X97361524Y-112434381D02*
X97361524Y-111434381D01*
X97599619Y-111434381D01*
X97742477Y-111482000D01*
X97837715Y-111577238D01*
X97885334Y-111672476D01*
X97932953Y-111862952D01*
X97932953Y-112005810D01*
X97885334Y-112196286D01*
X97837715Y-112291524D01*
X97742477Y-112386762D01*
X97599619Y-112434381D01*
X97361524Y-112434381D01*
X98790096Y-111434381D02*
X98599619Y-111434381D01*
X98504381Y-111482000D01*
X98456762Y-111529619D01*
X98361524Y-111672476D01*
X98313905Y-111862952D01*
X98313905Y-112243905D01*
X98361524Y-112339143D01*
X98409143Y-112386762D01*
X98504381Y-112434381D01*
X98694858Y-112434381D01*
X98790096Y-112386762D01*
X98837715Y-112339143D01*
X98885334Y-112243905D01*
X98885334Y-112005810D01*
X98837715Y-111910571D01*
X98790096Y-111862952D01*
X98694858Y-111815333D01*
X98504381Y-111815333D01*
X98409143Y-111862952D01*
X98361524Y-111910571D01*
X98313905Y-112005810D01*
X99456762Y-111862952D02*
X99361524Y-111815333D01*
X99313905Y-111767714D01*
X99266286Y-111672476D01*
X99266286Y-111624857D01*
X99313905Y-111529619D01*
X99361524Y-111482000D01*
X99456762Y-111434381D01*
X99647239Y-111434381D01*
X99742477Y-111482000D01*
X99790096Y-111529619D01*
X99837715Y-111624857D01*
X99837715Y-111672476D01*
X99790096Y-111767714D01*
X99742477Y-111815333D01*
X99647239Y-111862952D01*
X99456762Y-111862952D01*
X99361524Y-111910571D01*
X99313905Y-111958190D01*
X99266286Y-112053429D01*
X99266286Y-112243905D01*
X99313905Y-112339143D01*
X99361524Y-112386762D01*
X99456762Y-112434381D01*
X99647239Y-112434381D01*
X99742477Y-112386762D01*
X99790096Y-112339143D01*
X99837715Y-112243905D01*
X99837715Y-112053429D01*
X99790096Y-111958190D01*
X99742477Y-111910571D01*
X99647239Y-111862952D01*
X100790096Y-112434381D02*
X100218667Y-112434381D01*
X100504381Y-112434381D02*
X100504381Y-111434381D01*
X100409143Y-111577238D01*
X100313905Y-111672476D01*
X100218667Y-111720095D01*
X98456762Y-106139619D02*
X98361524Y-106092000D01*
X98266286Y-105996762D01*
X98123429Y-105853905D01*
X98028190Y-105806286D01*
X97932952Y-105806286D01*
X97980571Y-106044381D02*
X97885333Y-105996762D01*
X97790095Y-105901524D01*
X97742476Y-105711048D01*
X97742476Y-105377714D01*
X97790095Y-105187238D01*
X97885333Y-105092000D01*
X97980571Y-105044381D01*
X98171048Y-105044381D01*
X98266286Y-105092000D01*
X98361524Y-105187238D01*
X98409143Y-105377714D01*
X98409143Y-105711048D01*
X98361524Y-105901524D01*
X98266286Y-105996762D01*
X98171048Y-106044381D01*
X97980571Y-106044381D01*
X99361524Y-106044381D02*
X98790095Y-106044381D01*
X99075809Y-106044381D02*
X99075809Y-105044381D01*
X98980571Y-105187238D01*
X98885333Y-105282476D01*
X98790095Y-105330095D01*
X96694858Y-106830571D02*
X96837715Y-106878190D01*
X96885334Y-106925810D01*
X96932953Y-107021048D01*
X96932953Y-107163905D01*
X96885334Y-107259143D01*
X96837715Y-107306762D01*
X96742477Y-107354381D01*
X96361524Y-107354381D01*
X96361524Y-106354381D01*
X96694858Y-106354381D01*
X96790096Y-106402000D01*
X96837715Y-106449619D01*
X96885334Y-106544857D01*
X96885334Y-106640095D01*
X96837715Y-106735333D01*
X96790096Y-106782952D01*
X96694858Y-106830571D01*
X96361524Y-106830571D01*
X97361524Y-107354381D02*
X97361524Y-106354381D01*
X97599619Y-106354381D01*
X97742477Y-106402000D01*
X97837715Y-106497238D01*
X97885334Y-106592476D01*
X97932953Y-106782952D01*
X97932953Y-106925810D01*
X97885334Y-107116286D01*
X97837715Y-107211524D01*
X97742477Y-107306762D01*
X97599619Y-107354381D01*
X97361524Y-107354381D01*
X98790096Y-106354381D02*
X98599619Y-106354381D01*
X98504381Y-106402000D01*
X98456762Y-106449619D01*
X98361524Y-106592476D01*
X98313905Y-106782952D01*
X98313905Y-107163905D01*
X98361524Y-107259143D01*
X98409143Y-107306762D01*
X98504381Y-107354381D01*
X98694858Y-107354381D01*
X98790096Y-107306762D01*
X98837715Y-107259143D01*
X98885334Y-107163905D01*
X98885334Y-106925810D01*
X98837715Y-106830571D01*
X98790096Y-106782952D01*
X98694858Y-106735333D01*
X98504381Y-106735333D01*
X98409143Y-106782952D01*
X98361524Y-106830571D01*
X98313905Y-106925810D01*
X99456762Y-106782952D02*
X99361524Y-106735333D01*
X99313905Y-106687714D01*
X99266286Y-106592476D01*
X99266286Y-106544857D01*
X99313905Y-106449619D01*
X99361524Y-106402000D01*
X99456762Y-106354381D01*
X99647239Y-106354381D01*
X99742477Y-106402000D01*
X99790096Y-106449619D01*
X99837715Y-106544857D01*
X99837715Y-106592476D01*
X99790096Y-106687714D01*
X99742477Y-106735333D01*
X99647239Y-106782952D01*
X99456762Y-106782952D01*
X99361524Y-106830571D01*
X99313905Y-106878190D01*
X99266286Y-106973429D01*
X99266286Y-107163905D01*
X99313905Y-107259143D01*
X99361524Y-107306762D01*
X99456762Y-107354381D01*
X99647239Y-107354381D01*
X99742477Y-107306762D01*
X99790096Y-107259143D01*
X99837715Y-107163905D01*
X99837715Y-106973429D01*
X99790096Y-106878190D01*
X99742477Y-106830571D01*
X99647239Y-106782952D01*
X100790096Y-107354381D02*
X100218667Y-107354381D01*
X100504381Y-107354381D02*
X100504381Y-106354381D01*
X100409143Y-106497238D01*
X100313905Y-106592476D01*
X100218667Y-106640095D01*
X98456762Y-101059619D02*
X98361524Y-101012000D01*
X98266286Y-100916762D01*
X98123429Y-100773905D01*
X98028190Y-100726286D01*
X97932952Y-100726286D01*
X97980571Y-100964381D02*
X97885333Y-100916762D01*
X97790095Y-100821524D01*
X97742476Y-100631048D01*
X97742476Y-100297714D01*
X97790095Y-100107238D01*
X97885333Y-100012000D01*
X97980571Y-99964381D01*
X98171048Y-99964381D01*
X98266286Y-100012000D01*
X98361524Y-100107238D01*
X98409143Y-100297714D01*
X98409143Y-100631048D01*
X98361524Y-100821524D01*
X98266286Y-100916762D01*
X98171048Y-100964381D01*
X97980571Y-100964381D01*
X98790095Y-100059619D02*
X98837714Y-100012000D01*
X98932952Y-99964381D01*
X99171048Y-99964381D01*
X99266286Y-100012000D01*
X99313905Y-100059619D01*
X99361524Y-100154857D01*
X99361524Y-100250095D01*
X99313905Y-100392952D01*
X98742476Y-100964381D01*
X99361524Y-100964381D01*
X96694858Y-101750571D02*
X96837715Y-101798190D01*
X96885334Y-101845810D01*
X96932953Y-101941048D01*
X96932953Y-102083905D01*
X96885334Y-102179143D01*
X96837715Y-102226762D01*
X96742477Y-102274381D01*
X96361524Y-102274381D01*
X96361524Y-101274381D01*
X96694858Y-101274381D01*
X96790096Y-101322000D01*
X96837715Y-101369619D01*
X96885334Y-101464857D01*
X96885334Y-101560095D01*
X96837715Y-101655333D01*
X96790096Y-101702952D01*
X96694858Y-101750571D01*
X96361524Y-101750571D01*
X97361524Y-102274381D02*
X97361524Y-101274381D01*
X97599619Y-101274381D01*
X97742477Y-101322000D01*
X97837715Y-101417238D01*
X97885334Y-101512476D01*
X97932953Y-101702952D01*
X97932953Y-101845810D01*
X97885334Y-102036286D01*
X97837715Y-102131524D01*
X97742477Y-102226762D01*
X97599619Y-102274381D01*
X97361524Y-102274381D01*
X98790096Y-101274381D02*
X98599619Y-101274381D01*
X98504381Y-101322000D01*
X98456762Y-101369619D01*
X98361524Y-101512476D01*
X98313905Y-101702952D01*
X98313905Y-102083905D01*
X98361524Y-102179143D01*
X98409143Y-102226762D01*
X98504381Y-102274381D01*
X98694858Y-102274381D01*
X98790096Y-102226762D01*
X98837715Y-102179143D01*
X98885334Y-102083905D01*
X98885334Y-101845810D01*
X98837715Y-101750571D01*
X98790096Y-101702952D01*
X98694858Y-101655333D01*
X98504381Y-101655333D01*
X98409143Y-101702952D01*
X98361524Y-101750571D01*
X98313905Y-101845810D01*
X99456762Y-101702952D02*
X99361524Y-101655333D01*
X99313905Y-101607714D01*
X99266286Y-101512476D01*
X99266286Y-101464857D01*
X99313905Y-101369619D01*
X99361524Y-101322000D01*
X99456762Y-101274381D01*
X99647239Y-101274381D01*
X99742477Y-101322000D01*
X99790096Y-101369619D01*
X99837715Y-101464857D01*
X99837715Y-101512476D01*
X99790096Y-101607714D01*
X99742477Y-101655333D01*
X99647239Y-101702952D01*
X99456762Y-101702952D01*
X99361524Y-101750571D01*
X99313905Y-101798190D01*
X99266286Y-101893429D01*
X99266286Y-102083905D01*
X99313905Y-102179143D01*
X99361524Y-102226762D01*
X99456762Y-102274381D01*
X99647239Y-102274381D01*
X99742477Y-102226762D01*
X99790096Y-102179143D01*
X99837715Y-102083905D01*
X99837715Y-101893429D01*
X99790096Y-101798190D01*
X99742477Y-101750571D01*
X99647239Y-101702952D01*
X100790096Y-102274381D02*
X100218667Y-102274381D01*
X100504381Y-102274381D02*
X100504381Y-101274381D01*
X100409143Y-101417238D01*
X100313905Y-101512476D01*
X100218667Y-101560095D01*
X98456762Y-95979619D02*
X98361524Y-95932000D01*
X98266286Y-95836762D01*
X98123429Y-95693905D01*
X98028190Y-95646286D01*
X97932952Y-95646286D01*
X97980571Y-95884381D02*
X97885333Y-95836762D01*
X97790095Y-95741524D01*
X97742476Y-95551048D01*
X97742476Y-95217714D01*
X97790095Y-95027238D01*
X97885333Y-94932000D01*
X97980571Y-94884381D01*
X98171048Y-94884381D01*
X98266286Y-94932000D01*
X98361524Y-95027238D01*
X98409143Y-95217714D01*
X98409143Y-95551048D01*
X98361524Y-95741524D01*
X98266286Y-95836762D01*
X98171048Y-95884381D01*
X97980571Y-95884381D01*
X98742476Y-94884381D02*
X99361524Y-94884381D01*
X99028190Y-95265333D01*
X99171048Y-95265333D01*
X99266286Y-95312952D01*
X99313905Y-95360571D01*
X99361524Y-95455810D01*
X99361524Y-95693905D01*
X99313905Y-95789143D01*
X99266286Y-95836762D01*
X99171048Y-95884381D01*
X98885333Y-95884381D01*
X98790095Y-95836762D01*
X98742476Y-95789143D01*
X99488858Y-96670571D02*
X99631715Y-96718190D01*
X99679334Y-96765810D01*
X99726953Y-96861048D01*
X99726953Y-97003905D01*
X99679334Y-97099143D01*
X99631715Y-97146762D01*
X99536477Y-97194381D01*
X99155524Y-97194381D01*
X99155524Y-96194381D01*
X99488858Y-96194381D01*
X99584096Y-96242000D01*
X99631715Y-96289619D01*
X99679334Y-96384857D01*
X99679334Y-96480095D01*
X99631715Y-96575333D01*
X99584096Y-96622952D01*
X99488858Y-96670571D01*
X99155524Y-96670571D01*
X100155524Y-97194381D02*
X100155524Y-96194381D01*
X100393619Y-96194381D01*
X100536477Y-96242000D01*
X100631715Y-96337238D01*
X100679334Y-96432476D01*
X100726953Y-96622952D01*
X100726953Y-96765810D01*
X100679334Y-96956286D01*
X100631715Y-97051524D01*
X100536477Y-97146762D01*
X100393619Y-97194381D01*
X100155524Y-97194381D01*
X101584096Y-96194381D02*
X101393619Y-96194381D01*
X101298381Y-96242000D01*
X101250762Y-96289619D01*
X101155524Y-96432476D01*
X101107905Y-96622952D01*
X101107905Y-97003905D01*
X101155524Y-97099143D01*
X101203143Y-97146762D01*
X101298381Y-97194381D01*
X101488858Y-97194381D01*
X101584096Y-97146762D01*
X101631715Y-97099143D01*
X101679334Y-97003905D01*
X101679334Y-96765810D01*
X101631715Y-96670571D01*
X101584096Y-96622952D01*
X101488858Y-96575333D01*
X101298381Y-96575333D01*
X101203143Y-96622952D01*
X101155524Y-96670571D01*
X101107905Y-96765810D01*
X102250762Y-96622952D02*
X102155524Y-96575333D01*
X102107905Y-96527714D01*
X102060286Y-96432476D01*
X102060286Y-96384857D01*
X102107905Y-96289619D01*
X102155524Y-96242000D01*
X102250762Y-96194381D01*
X102441239Y-96194381D01*
X102536477Y-96242000D01*
X102584096Y-96289619D01*
X102631715Y-96384857D01*
X102631715Y-96432476D01*
X102584096Y-96527714D01*
X102536477Y-96575333D01*
X102441239Y-96622952D01*
X102250762Y-96622952D01*
X102155524Y-96670571D01*
X102107905Y-96718190D01*
X102060286Y-96813429D01*
X102060286Y-97003905D01*
X102107905Y-97099143D01*
X102155524Y-97146762D01*
X102250762Y-97194381D01*
X102441239Y-97194381D01*
X102536477Y-97146762D01*
X102584096Y-97099143D01*
X102631715Y-97003905D01*
X102631715Y-96813429D01*
X102584096Y-96718190D01*
X102536477Y-96670571D01*
X102441239Y-96622952D01*
X103584096Y-97194381D02*
X103012667Y-97194381D01*
X103298381Y-97194381D02*
X103298381Y-96194381D01*
X103203143Y-96337238D01*
X103107905Y-96432476D01*
X103012667Y-96480095D01*
X101250762Y-90899619D02*
X101155524Y-90852000D01*
X101060286Y-90756762D01*
X100917429Y-90613905D01*
X100822190Y-90566286D01*
X100726952Y-90566286D01*
X100774571Y-90804381D02*
X100679333Y-90756762D01*
X100584095Y-90661524D01*
X100536476Y-90471048D01*
X100536476Y-90137714D01*
X100584095Y-89947238D01*
X100679333Y-89852000D01*
X100774571Y-89804381D01*
X100965048Y-89804381D01*
X101060286Y-89852000D01*
X101155524Y-89947238D01*
X101203143Y-90137714D01*
X101203143Y-90471048D01*
X101155524Y-90661524D01*
X101060286Y-90756762D01*
X100965048Y-90804381D01*
X100774571Y-90804381D01*
X102060286Y-90137714D02*
X102060286Y-90804381D01*
X101822190Y-89756762D02*
X101584095Y-90471048D01*
X102203143Y-90471048D01*
X108124858Y-105370571D02*
X108267715Y-105418190D01*
X108315334Y-105465810D01*
X108362953Y-105561048D01*
X108362953Y-105703905D01*
X108315334Y-105799143D01*
X108267715Y-105846762D01*
X108172477Y-105894381D01*
X107791524Y-105894381D01*
X107791524Y-104894381D01*
X108124858Y-104894381D01*
X108220096Y-104942000D01*
X108267715Y-104989619D01*
X108315334Y-105084857D01*
X108315334Y-105180095D01*
X108267715Y-105275333D01*
X108220096Y-105322952D01*
X108124858Y-105370571D01*
X107791524Y-105370571D01*
X108791524Y-105894381D02*
X108791524Y-104894381D01*
X109029619Y-104894381D01*
X109172477Y-104942000D01*
X109267715Y-105037238D01*
X109315334Y-105132476D01*
X109362953Y-105322952D01*
X109362953Y-105465810D01*
X109315334Y-105656286D01*
X109267715Y-105751524D01*
X109172477Y-105846762D01*
X109029619Y-105894381D01*
X108791524Y-105894381D01*
X110220096Y-104894381D02*
X110029619Y-104894381D01*
X109934381Y-104942000D01*
X109886762Y-104989619D01*
X109791524Y-105132476D01*
X109743905Y-105322952D01*
X109743905Y-105703905D01*
X109791524Y-105799143D01*
X109839143Y-105846762D01*
X109934381Y-105894381D01*
X110124858Y-105894381D01*
X110220096Y-105846762D01*
X110267715Y-105799143D01*
X110315334Y-105703905D01*
X110315334Y-105465810D01*
X110267715Y-105370571D01*
X110220096Y-105322952D01*
X110124858Y-105275333D01*
X109934381Y-105275333D01*
X109839143Y-105322952D01*
X109791524Y-105370571D01*
X109743905Y-105465810D01*
X110886762Y-105322952D02*
X110791524Y-105275333D01*
X110743905Y-105227714D01*
X110696286Y-105132476D01*
X110696286Y-105084857D01*
X110743905Y-104989619D01*
X110791524Y-104942000D01*
X110886762Y-104894381D01*
X111077239Y-104894381D01*
X111172477Y-104942000D01*
X111220096Y-104989619D01*
X111267715Y-105084857D01*
X111267715Y-105132476D01*
X111220096Y-105227714D01*
X111172477Y-105275333D01*
X111077239Y-105322952D01*
X110886762Y-105322952D01*
X110791524Y-105370571D01*
X110743905Y-105418190D01*
X110696286Y-105513429D01*
X110696286Y-105703905D01*
X110743905Y-105799143D01*
X110791524Y-105846762D01*
X110886762Y-105894381D01*
X111077239Y-105894381D01*
X111172477Y-105846762D01*
X111220096Y-105799143D01*
X111267715Y-105703905D01*
X111267715Y-105513429D01*
X111220096Y-105418190D01*
X111172477Y-105370571D01*
X111077239Y-105322952D01*
X112220096Y-105894381D02*
X111648667Y-105894381D01*
X111934381Y-105894381D02*
X111934381Y-104894381D01*
X111839143Y-105037238D01*
X111743905Y-105132476D01*
X111648667Y-105180095D01*
X109886762Y-112379619D02*
X109791524Y-112332000D01*
X109696286Y-112236762D01*
X109553429Y-112093905D01*
X109458190Y-112046286D01*
X109362952Y-112046286D01*
X109410571Y-112284381D02*
X109315333Y-112236762D01*
X109220095Y-112141524D01*
X109172476Y-111951048D01*
X109172476Y-111617714D01*
X109220095Y-111427238D01*
X109315333Y-111332000D01*
X109410571Y-111284381D01*
X109601048Y-111284381D01*
X109696286Y-111332000D01*
X109791524Y-111427238D01*
X109839143Y-111617714D01*
X109839143Y-111951048D01*
X109791524Y-112141524D01*
X109696286Y-112236762D01*
X109601048Y-112284381D01*
X109410571Y-112284381D01*
X110743905Y-111284381D02*
X110267714Y-111284381D01*
X110220095Y-111760571D01*
X110267714Y-111712952D01*
X110362952Y-111665333D01*
X110601048Y-111665333D01*
X110696286Y-111712952D01*
X110743905Y-111760571D01*
X110791524Y-111855810D01*
X110791524Y-112093905D01*
X110743905Y-112189143D01*
X110696286Y-112236762D01*
X110601048Y-112284381D01*
X110362952Y-112284381D01*
X110267714Y-112236762D01*
X110220095Y-112189143D01*
X108124858Y-100290571D02*
X108267715Y-100338190D01*
X108315334Y-100385810D01*
X108362953Y-100481048D01*
X108362953Y-100623905D01*
X108315334Y-100719143D01*
X108267715Y-100766762D01*
X108172477Y-100814381D01*
X107791524Y-100814381D01*
X107791524Y-99814381D01*
X108124858Y-99814381D01*
X108220096Y-99862000D01*
X108267715Y-99909619D01*
X108315334Y-100004857D01*
X108315334Y-100100095D01*
X108267715Y-100195333D01*
X108220096Y-100242952D01*
X108124858Y-100290571D01*
X107791524Y-100290571D01*
X108791524Y-100814381D02*
X108791524Y-99814381D01*
X109029619Y-99814381D01*
X109172477Y-99862000D01*
X109267715Y-99957238D01*
X109315334Y-100052476D01*
X109362953Y-100242952D01*
X109362953Y-100385810D01*
X109315334Y-100576286D01*
X109267715Y-100671524D01*
X109172477Y-100766762D01*
X109029619Y-100814381D01*
X108791524Y-100814381D01*
X110220096Y-99814381D02*
X110029619Y-99814381D01*
X109934381Y-99862000D01*
X109886762Y-99909619D01*
X109791524Y-100052476D01*
X109743905Y-100242952D01*
X109743905Y-100623905D01*
X109791524Y-100719143D01*
X109839143Y-100766762D01*
X109934381Y-100814381D01*
X110124858Y-100814381D01*
X110220096Y-100766762D01*
X110267715Y-100719143D01*
X110315334Y-100623905D01*
X110315334Y-100385810D01*
X110267715Y-100290571D01*
X110220096Y-100242952D01*
X110124858Y-100195333D01*
X109934381Y-100195333D01*
X109839143Y-100242952D01*
X109791524Y-100290571D01*
X109743905Y-100385810D01*
X110886762Y-100242952D02*
X110791524Y-100195333D01*
X110743905Y-100147714D01*
X110696286Y-100052476D01*
X110696286Y-100004857D01*
X110743905Y-99909619D01*
X110791524Y-99862000D01*
X110886762Y-99814381D01*
X111077239Y-99814381D01*
X111172477Y-99862000D01*
X111220096Y-99909619D01*
X111267715Y-100004857D01*
X111267715Y-100052476D01*
X111220096Y-100147714D01*
X111172477Y-100195333D01*
X111077239Y-100242952D01*
X110886762Y-100242952D01*
X110791524Y-100290571D01*
X110743905Y-100338190D01*
X110696286Y-100433429D01*
X110696286Y-100623905D01*
X110743905Y-100719143D01*
X110791524Y-100766762D01*
X110886762Y-100814381D01*
X111077239Y-100814381D01*
X111172477Y-100766762D01*
X111220096Y-100719143D01*
X111267715Y-100623905D01*
X111267715Y-100433429D01*
X111220096Y-100338190D01*
X111172477Y-100290571D01*
X111077239Y-100242952D01*
X112220096Y-100814381D02*
X111648667Y-100814381D01*
X111934381Y-100814381D02*
X111934381Y-99814381D01*
X111839143Y-99957238D01*
X111743905Y-100052476D01*
X111648667Y-100100095D01*
X109886762Y-107299619D02*
X109791524Y-107252000D01*
X109696286Y-107156762D01*
X109553429Y-107013905D01*
X109458190Y-106966286D01*
X109362952Y-106966286D01*
X109410571Y-107204381D02*
X109315333Y-107156762D01*
X109220095Y-107061524D01*
X109172476Y-106871048D01*
X109172476Y-106537714D01*
X109220095Y-106347238D01*
X109315333Y-106252000D01*
X109410571Y-106204381D01*
X109601048Y-106204381D01*
X109696286Y-106252000D01*
X109791524Y-106347238D01*
X109839143Y-106537714D01*
X109839143Y-106871048D01*
X109791524Y-107061524D01*
X109696286Y-107156762D01*
X109601048Y-107204381D01*
X109410571Y-107204381D01*
X110696286Y-106204381D02*
X110505809Y-106204381D01*
X110410571Y-106252000D01*
X110362952Y-106299619D01*
X110267714Y-106442476D01*
X110220095Y-106632952D01*
X110220095Y-107013905D01*
X110267714Y-107109143D01*
X110315333Y-107156762D01*
X110410571Y-107204381D01*
X110601048Y-107204381D01*
X110696286Y-107156762D01*
X110743905Y-107109143D01*
X110791524Y-107013905D01*
X110791524Y-106775810D01*
X110743905Y-106680571D01*
X110696286Y-106632952D01*
X110601048Y-106585333D01*
X110410571Y-106585333D01*
X110315333Y-106632952D01*
X110267714Y-106680571D01*
X110220095Y-106775810D01*
X108124858Y-95210571D02*
X108267715Y-95258190D01*
X108315334Y-95305810D01*
X108362953Y-95401048D01*
X108362953Y-95543905D01*
X108315334Y-95639143D01*
X108267715Y-95686762D01*
X108172477Y-95734381D01*
X107791524Y-95734381D01*
X107791524Y-94734381D01*
X108124858Y-94734381D01*
X108220096Y-94782000D01*
X108267715Y-94829619D01*
X108315334Y-94924857D01*
X108315334Y-95020095D01*
X108267715Y-95115333D01*
X108220096Y-95162952D01*
X108124858Y-95210571D01*
X107791524Y-95210571D01*
X108791524Y-95734381D02*
X108791524Y-94734381D01*
X109029619Y-94734381D01*
X109172477Y-94782000D01*
X109267715Y-94877238D01*
X109315334Y-94972476D01*
X109362953Y-95162952D01*
X109362953Y-95305810D01*
X109315334Y-95496286D01*
X109267715Y-95591524D01*
X109172477Y-95686762D01*
X109029619Y-95734381D01*
X108791524Y-95734381D01*
X110220096Y-94734381D02*
X110029619Y-94734381D01*
X109934381Y-94782000D01*
X109886762Y-94829619D01*
X109791524Y-94972476D01*
X109743905Y-95162952D01*
X109743905Y-95543905D01*
X109791524Y-95639143D01*
X109839143Y-95686762D01*
X109934381Y-95734381D01*
X110124858Y-95734381D01*
X110220096Y-95686762D01*
X110267715Y-95639143D01*
X110315334Y-95543905D01*
X110315334Y-95305810D01*
X110267715Y-95210571D01*
X110220096Y-95162952D01*
X110124858Y-95115333D01*
X109934381Y-95115333D01*
X109839143Y-95162952D01*
X109791524Y-95210571D01*
X109743905Y-95305810D01*
X110886762Y-95162952D02*
X110791524Y-95115333D01*
X110743905Y-95067714D01*
X110696286Y-94972476D01*
X110696286Y-94924857D01*
X110743905Y-94829619D01*
X110791524Y-94782000D01*
X110886762Y-94734381D01*
X111077239Y-94734381D01*
X111172477Y-94782000D01*
X111220096Y-94829619D01*
X111267715Y-94924857D01*
X111267715Y-94972476D01*
X111220096Y-95067714D01*
X111172477Y-95115333D01*
X111077239Y-95162952D01*
X110886762Y-95162952D01*
X110791524Y-95210571D01*
X110743905Y-95258190D01*
X110696286Y-95353429D01*
X110696286Y-95543905D01*
X110743905Y-95639143D01*
X110791524Y-95686762D01*
X110886762Y-95734381D01*
X111077239Y-95734381D01*
X111172477Y-95686762D01*
X111220096Y-95639143D01*
X111267715Y-95543905D01*
X111267715Y-95353429D01*
X111220096Y-95258190D01*
X111172477Y-95210571D01*
X111077239Y-95162952D01*
X112220096Y-95734381D02*
X111648667Y-95734381D01*
X111934381Y-95734381D02*
X111934381Y-94734381D01*
X111839143Y-94877238D01*
X111743905Y-94972476D01*
X111648667Y-95020095D01*
X109886762Y-102219619D02*
X109791524Y-102172000D01*
X109696286Y-102076762D01*
X109553429Y-101933905D01*
X109458190Y-101886286D01*
X109362952Y-101886286D01*
X109410571Y-102124381D02*
X109315333Y-102076762D01*
X109220095Y-101981524D01*
X109172476Y-101791048D01*
X109172476Y-101457714D01*
X109220095Y-101267238D01*
X109315333Y-101172000D01*
X109410571Y-101124381D01*
X109601048Y-101124381D01*
X109696286Y-101172000D01*
X109791524Y-101267238D01*
X109839143Y-101457714D01*
X109839143Y-101791048D01*
X109791524Y-101981524D01*
X109696286Y-102076762D01*
X109601048Y-102124381D01*
X109410571Y-102124381D01*
X110172476Y-101124381D02*
X110839143Y-101124381D01*
X110410571Y-102124381D01*
X110664858Y-96670571D02*
X110807715Y-96718190D01*
X110855334Y-96765810D01*
X110902953Y-96861048D01*
X110902953Y-97003905D01*
X110855334Y-97099143D01*
X110807715Y-97146762D01*
X110712477Y-97194381D01*
X110331524Y-97194381D01*
X110331524Y-96194381D01*
X110664858Y-96194381D01*
X110760096Y-96242000D01*
X110807715Y-96289619D01*
X110855334Y-96384857D01*
X110855334Y-96480095D01*
X110807715Y-96575333D01*
X110760096Y-96622952D01*
X110664858Y-96670571D01*
X110331524Y-96670571D01*
X111331524Y-97194381D02*
X111331524Y-96194381D01*
X111569619Y-96194381D01*
X111712477Y-96242000D01*
X111807715Y-96337238D01*
X111855334Y-96432476D01*
X111902953Y-96622952D01*
X111902953Y-96765810D01*
X111855334Y-96956286D01*
X111807715Y-97051524D01*
X111712477Y-97146762D01*
X111569619Y-97194381D01*
X111331524Y-97194381D01*
X112760096Y-96194381D02*
X112569619Y-96194381D01*
X112474381Y-96242000D01*
X112426762Y-96289619D01*
X112331524Y-96432476D01*
X112283905Y-96622952D01*
X112283905Y-97003905D01*
X112331524Y-97099143D01*
X112379143Y-97146762D01*
X112474381Y-97194381D01*
X112664858Y-97194381D01*
X112760096Y-97146762D01*
X112807715Y-97099143D01*
X112855334Y-97003905D01*
X112855334Y-96765810D01*
X112807715Y-96670571D01*
X112760096Y-96622952D01*
X112664858Y-96575333D01*
X112474381Y-96575333D01*
X112379143Y-96622952D01*
X112331524Y-96670571D01*
X112283905Y-96765810D01*
X113426762Y-96622952D02*
X113331524Y-96575333D01*
X113283905Y-96527714D01*
X113236286Y-96432476D01*
X113236286Y-96384857D01*
X113283905Y-96289619D01*
X113331524Y-96242000D01*
X113426762Y-96194381D01*
X113617239Y-96194381D01*
X113712477Y-96242000D01*
X113760096Y-96289619D01*
X113807715Y-96384857D01*
X113807715Y-96432476D01*
X113760096Y-96527714D01*
X113712477Y-96575333D01*
X113617239Y-96622952D01*
X113426762Y-96622952D01*
X113331524Y-96670571D01*
X113283905Y-96718190D01*
X113236286Y-96813429D01*
X113236286Y-97003905D01*
X113283905Y-97099143D01*
X113331524Y-97146762D01*
X113426762Y-97194381D01*
X113617239Y-97194381D01*
X113712477Y-97146762D01*
X113760096Y-97099143D01*
X113807715Y-97003905D01*
X113807715Y-96813429D01*
X113760096Y-96718190D01*
X113712477Y-96670571D01*
X113617239Y-96622952D01*
X114760096Y-97194381D02*
X114188667Y-97194381D01*
X114474381Y-97194381D02*
X114474381Y-96194381D01*
X114379143Y-96337238D01*
X114283905Y-96432476D01*
X114188667Y-96480095D01*
X112426762Y-90899619D02*
X112331524Y-90852000D01*
X112236286Y-90756762D01*
X112093429Y-90613905D01*
X111998190Y-90566286D01*
X111902952Y-90566286D01*
X111950571Y-90804381D02*
X111855333Y-90756762D01*
X111760095Y-90661524D01*
X111712476Y-90471048D01*
X111712476Y-90137714D01*
X111760095Y-89947238D01*
X111855333Y-89852000D01*
X111950571Y-89804381D01*
X112141048Y-89804381D01*
X112236286Y-89852000D01*
X112331524Y-89947238D01*
X112379143Y-90137714D01*
X112379143Y-90471048D01*
X112331524Y-90661524D01*
X112236286Y-90756762D01*
X112141048Y-90804381D01*
X111950571Y-90804381D01*
X112950571Y-90232952D02*
X112855333Y-90185333D01*
X112807714Y-90137714D01*
X112760095Y-90042476D01*
X112760095Y-89994857D01*
X112807714Y-89899619D01*
X112855333Y-89852000D01*
X112950571Y-89804381D01*
X113141048Y-89804381D01*
X113236286Y-89852000D01*
X113283905Y-89899619D01*
X113331524Y-89994857D01*
X113331524Y-90042476D01*
X113283905Y-90137714D01*
X113236286Y-90185333D01*
X113141048Y-90232952D01*
X112950571Y-90232952D01*
X112855333Y-90280571D01*
X112807714Y-90328190D01*
X112760095Y-90423429D01*
X112760095Y-90613905D01*
X112807714Y-90709143D01*
X112855333Y-90756762D01*
X112950571Y-90804381D01*
X113141048Y-90804381D01*
X113236286Y-90756762D01*
X113283905Y-90709143D01*
X113331524Y-90613905D01*
X113331524Y-90423429D01*
X113283905Y-90328190D01*
X113236286Y-90280571D01*
X113141048Y-90232952D01*
X125904858Y-111910571D02*
X126047715Y-111958190D01*
X126095334Y-112005810D01*
X126142953Y-112101048D01*
X126142953Y-112243905D01*
X126095334Y-112339143D01*
X126047715Y-112386762D01*
X125952477Y-112434381D01*
X125571524Y-112434381D01*
X125571524Y-111434381D01*
X125904858Y-111434381D01*
X126000096Y-111482000D01*
X126047715Y-111529619D01*
X126095334Y-111624857D01*
X126095334Y-111720095D01*
X126047715Y-111815333D01*
X126000096Y-111862952D01*
X125904858Y-111910571D01*
X125571524Y-111910571D01*
X126571524Y-112434381D02*
X126571524Y-111434381D01*
X126809619Y-111434381D01*
X126952477Y-111482000D01*
X127047715Y-111577238D01*
X127095334Y-111672476D01*
X127142953Y-111862952D01*
X127142953Y-112005810D01*
X127095334Y-112196286D01*
X127047715Y-112291524D01*
X126952477Y-112386762D01*
X126809619Y-112434381D01*
X126571524Y-112434381D01*
X128000096Y-111434381D02*
X127809619Y-111434381D01*
X127714381Y-111482000D01*
X127666762Y-111529619D01*
X127571524Y-111672476D01*
X127523905Y-111862952D01*
X127523905Y-112243905D01*
X127571524Y-112339143D01*
X127619143Y-112386762D01*
X127714381Y-112434381D01*
X127904858Y-112434381D01*
X128000096Y-112386762D01*
X128047715Y-112339143D01*
X128095334Y-112243905D01*
X128095334Y-112005810D01*
X128047715Y-111910571D01*
X128000096Y-111862952D01*
X127904858Y-111815333D01*
X127714381Y-111815333D01*
X127619143Y-111862952D01*
X127571524Y-111910571D01*
X127523905Y-112005810D01*
X128666762Y-111862952D02*
X128571524Y-111815333D01*
X128523905Y-111767714D01*
X128476286Y-111672476D01*
X128476286Y-111624857D01*
X128523905Y-111529619D01*
X128571524Y-111482000D01*
X128666762Y-111434381D01*
X128857239Y-111434381D01*
X128952477Y-111482000D01*
X129000096Y-111529619D01*
X129047715Y-111624857D01*
X129047715Y-111672476D01*
X129000096Y-111767714D01*
X128952477Y-111815333D01*
X128857239Y-111862952D01*
X128666762Y-111862952D01*
X128571524Y-111910571D01*
X128523905Y-111958190D01*
X128476286Y-112053429D01*
X128476286Y-112243905D01*
X128523905Y-112339143D01*
X128571524Y-112386762D01*
X128666762Y-112434381D01*
X128857239Y-112434381D01*
X128952477Y-112386762D01*
X129000096Y-112339143D01*
X129047715Y-112243905D01*
X129047715Y-112053429D01*
X129000096Y-111958190D01*
X128952477Y-111910571D01*
X128857239Y-111862952D01*
X130000096Y-112434381D02*
X129428667Y-112434381D01*
X129714381Y-112434381D02*
X129714381Y-111434381D01*
X129619143Y-111577238D01*
X129523905Y-111672476D01*
X129428667Y-111720095D01*
X127666762Y-106139619D02*
X127571524Y-106092000D01*
X127476286Y-105996762D01*
X127333429Y-105853905D01*
X127238190Y-105806286D01*
X127142952Y-105806286D01*
X127190571Y-106044381D02*
X127095333Y-105996762D01*
X127000095Y-105901524D01*
X126952476Y-105711048D01*
X126952476Y-105377714D01*
X127000095Y-105187238D01*
X127095333Y-105092000D01*
X127190571Y-105044381D01*
X127381048Y-105044381D01*
X127476286Y-105092000D01*
X127571524Y-105187238D01*
X127619143Y-105377714D01*
X127619143Y-105711048D01*
X127571524Y-105901524D01*
X127476286Y-105996762D01*
X127381048Y-106044381D01*
X127190571Y-106044381D01*
X128095333Y-106044381D02*
X128285809Y-106044381D01*
X128381048Y-105996762D01*
X128428667Y-105949143D01*
X128523905Y-105806286D01*
X128571524Y-105615810D01*
X128571524Y-105234857D01*
X128523905Y-105139619D01*
X128476286Y-105092000D01*
X128381048Y-105044381D01*
X128190571Y-105044381D01*
X128095333Y-105092000D01*
X128047714Y-105139619D01*
X128000095Y-105234857D01*
X128000095Y-105472952D01*
X128047714Y-105568190D01*
X128095333Y-105615810D01*
X128190571Y-105663429D01*
X128381048Y-105663429D01*
X128476286Y-105615810D01*
X128523905Y-105568190D01*
X128571524Y-105472952D01*
X125904858Y-106830571D02*
X126047715Y-106878190D01*
X126095334Y-106925810D01*
X126142953Y-107021048D01*
X126142953Y-107163905D01*
X126095334Y-107259143D01*
X126047715Y-107306762D01*
X125952477Y-107354381D01*
X125571524Y-107354381D01*
X125571524Y-106354381D01*
X125904858Y-106354381D01*
X126000096Y-106402000D01*
X126047715Y-106449619D01*
X126095334Y-106544857D01*
X126095334Y-106640095D01*
X126047715Y-106735333D01*
X126000096Y-106782952D01*
X125904858Y-106830571D01*
X125571524Y-106830571D01*
X126571524Y-107354381D02*
X126571524Y-106354381D01*
X126809619Y-106354381D01*
X126952477Y-106402000D01*
X127047715Y-106497238D01*
X127095334Y-106592476D01*
X127142953Y-106782952D01*
X127142953Y-106925810D01*
X127095334Y-107116286D01*
X127047715Y-107211524D01*
X126952477Y-107306762D01*
X126809619Y-107354381D01*
X126571524Y-107354381D01*
X128000096Y-106354381D02*
X127809619Y-106354381D01*
X127714381Y-106402000D01*
X127666762Y-106449619D01*
X127571524Y-106592476D01*
X127523905Y-106782952D01*
X127523905Y-107163905D01*
X127571524Y-107259143D01*
X127619143Y-107306762D01*
X127714381Y-107354381D01*
X127904858Y-107354381D01*
X128000096Y-107306762D01*
X128047715Y-107259143D01*
X128095334Y-107163905D01*
X128095334Y-106925810D01*
X128047715Y-106830571D01*
X128000096Y-106782952D01*
X127904858Y-106735333D01*
X127714381Y-106735333D01*
X127619143Y-106782952D01*
X127571524Y-106830571D01*
X127523905Y-106925810D01*
X128666762Y-106782952D02*
X128571524Y-106735333D01*
X128523905Y-106687714D01*
X128476286Y-106592476D01*
X128476286Y-106544857D01*
X128523905Y-106449619D01*
X128571524Y-106402000D01*
X128666762Y-106354381D01*
X128857239Y-106354381D01*
X128952477Y-106402000D01*
X129000096Y-106449619D01*
X129047715Y-106544857D01*
X129047715Y-106592476D01*
X129000096Y-106687714D01*
X128952477Y-106735333D01*
X128857239Y-106782952D01*
X128666762Y-106782952D01*
X128571524Y-106830571D01*
X128523905Y-106878190D01*
X128476286Y-106973429D01*
X128476286Y-107163905D01*
X128523905Y-107259143D01*
X128571524Y-107306762D01*
X128666762Y-107354381D01*
X128857239Y-107354381D01*
X128952477Y-107306762D01*
X129000096Y-107259143D01*
X129047715Y-107163905D01*
X129047715Y-106973429D01*
X129000096Y-106878190D01*
X128952477Y-106830571D01*
X128857239Y-106782952D01*
X130000096Y-107354381D02*
X129428667Y-107354381D01*
X129714381Y-107354381D02*
X129714381Y-106354381D01*
X129619143Y-106497238D01*
X129523905Y-106592476D01*
X129428667Y-106640095D01*
X127190572Y-101059619D02*
X127095334Y-101012000D01*
X127000096Y-100916762D01*
X126857239Y-100773905D01*
X126762000Y-100726286D01*
X126666762Y-100726286D01*
X126714381Y-100964381D02*
X126619143Y-100916762D01*
X126523905Y-100821524D01*
X126476286Y-100631048D01*
X126476286Y-100297714D01*
X126523905Y-100107238D01*
X126619143Y-100012000D01*
X126714381Y-99964381D01*
X126904858Y-99964381D01*
X127000096Y-100012000D01*
X127095334Y-100107238D01*
X127142953Y-100297714D01*
X127142953Y-100631048D01*
X127095334Y-100821524D01*
X127000096Y-100916762D01*
X126904858Y-100964381D01*
X126714381Y-100964381D01*
X128095334Y-100964381D02*
X127523905Y-100964381D01*
X127809619Y-100964381D02*
X127809619Y-99964381D01*
X127714381Y-100107238D01*
X127619143Y-100202476D01*
X127523905Y-100250095D01*
X128714381Y-99964381D02*
X128809620Y-99964381D01*
X128904858Y-100012000D01*
X128952477Y-100059619D01*
X129000096Y-100154857D01*
X129047715Y-100345333D01*
X129047715Y-100583429D01*
X129000096Y-100773905D01*
X128952477Y-100869143D01*
X128904858Y-100916762D01*
X128809620Y-100964381D01*
X128714381Y-100964381D01*
X128619143Y-100916762D01*
X128571524Y-100869143D01*
X128523905Y-100773905D01*
X128476286Y-100583429D01*
X128476286Y-100345333D01*
X128523905Y-100154857D01*
X128571524Y-100059619D01*
X128619143Y-100012000D01*
X128714381Y-99964381D01*
X125904858Y-101750571D02*
X126047715Y-101798190D01*
X126095334Y-101845810D01*
X126142953Y-101941048D01*
X126142953Y-102083905D01*
X126095334Y-102179143D01*
X126047715Y-102226762D01*
X125952477Y-102274381D01*
X125571524Y-102274381D01*
X125571524Y-101274381D01*
X125904858Y-101274381D01*
X126000096Y-101322000D01*
X126047715Y-101369619D01*
X126095334Y-101464857D01*
X126095334Y-101560095D01*
X126047715Y-101655333D01*
X126000096Y-101702952D01*
X125904858Y-101750571D01*
X125571524Y-101750571D01*
X126571524Y-102274381D02*
X126571524Y-101274381D01*
X126809619Y-101274381D01*
X126952477Y-101322000D01*
X127047715Y-101417238D01*
X127095334Y-101512476D01*
X127142953Y-101702952D01*
X127142953Y-101845810D01*
X127095334Y-102036286D01*
X127047715Y-102131524D01*
X126952477Y-102226762D01*
X126809619Y-102274381D01*
X126571524Y-102274381D01*
X128000096Y-101274381D02*
X127809619Y-101274381D01*
X127714381Y-101322000D01*
X127666762Y-101369619D01*
X127571524Y-101512476D01*
X127523905Y-101702952D01*
X127523905Y-102083905D01*
X127571524Y-102179143D01*
X127619143Y-102226762D01*
X127714381Y-102274381D01*
X127904858Y-102274381D01*
X128000096Y-102226762D01*
X128047715Y-102179143D01*
X128095334Y-102083905D01*
X128095334Y-101845810D01*
X128047715Y-101750571D01*
X128000096Y-101702952D01*
X127904858Y-101655333D01*
X127714381Y-101655333D01*
X127619143Y-101702952D01*
X127571524Y-101750571D01*
X127523905Y-101845810D01*
X128666762Y-101702952D02*
X128571524Y-101655333D01*
X128523905Y-101607714D01*
X128476286Y-101512476D01*
X128476286Y-101464857D01*
X128523905Y-101369619D01*
X128571524Y-101322000D01*
X128666762Y-101274381D01*
X128857239Y-101274381D01*
X128952477Y-101322000D01*
X129000096Y-101369619D01*
X129047715Y-101464857D01*
X129047715Y-101512476D01*
X129000096Y-101607714D01*
X128952477Y-101655333D01*
X128857239Y-101702952D01*
X128666762Y-101702952D01*
X128571524Y-101750571D01*
X128523905Y-101798190D01*
X128476286Y-101893429D01*
X128476286Y-102083905D01*
X128523905Y-102179143D01*
X128571524Y-102226762D01*
X128666762Y-102274381D01*
X128857239Y-102274381D01*
X128952477Y-102226762D01*
X129000096Y-102179143D01*
X129047715Y-102083905D01*
X129047715Y-101893429D01*
X129000096Y-101798190D01*
X128952477Y-101750571D01*
X128857239Y-101702952D01*
X130000096Y-102274381D02*
X129428667Y-102274381D01*
X129714381Y-102274381D02*
X129714381Y-101274381D01*
X129619143Y-101417238D01*
X129523905Y-101512476D01*
X129428667Y-101560095D01*
X127190572Y-95979619D02*
X127095334Y-95932000D01*
X127000096Y-95836762D01*
X126857239Y-95693905D01*
X126762000Y-95646286D01*
X126666762Y-95646286D01*
X126714381Y-95884381D02*
X126619143Y-95836762D01*
X126523905Y-95741524D01*
X126476286Y-95551048D01*
X126476286Y-95217714D01*
X126523905Y-95027238D01*
X126619143Y-94932000D01*
X126714381Y-94884381D01*
X126904858Y-94884381D01*
X127000096Y-94932000D01*
X127095334Y-95027238D01*
X127142953Y-95217714D01*
X127142953Y-95551048D01*
X127095334Y-95741524D01*
X127000096Y-95836762D01*
X126904858Y-95884381D01*
X126714381Y-95884381D01*
X128095334Y-95884381D02*
X127523905Y-95884381D01*
X127809619Y-95884381D02*
X127809619Y-94884381D01*
X127714381Y-95027238D01*
X127619143Y-95122476D01*
X127523905Y-95170095D01*
X129047715Y-95884381D02*
X128476286Y-95884381D01*
X128762000Y-95884381D02*
X128762000Y-94884381D01*
X128666762Y-95027238D01*
X128571524Y-95122476D01*
X128476286Y-95170095D01*
X123364858Y-96670571D02*
X123507715Y-96718190D01*
X123555334Y-96765810D01*
X123602953Y-96861048D01*
X123602953Y-97003905D01*
X123555334Y-97099143D01*
X123507715Y-97146762D01*
X123412477Y-97194381D01*
X123031524Y-97194381D01*
X123031524Y-96194381D01*
X123364858Y-96194381D01*
X123460096Y-96242000D01*
X123507715Y-96289619D01*
X123555334Y-96384857D01*
X123555334Y-96480095D01*
X123507715Y-96575333D01*
X123460096Y-96622952D01*
X123364858Y-96670571D01*
X123031524Y-96670571D01*
X124031524Y-97194381D02*
X124031524Y-96194381D01*
X124269619Y-96194381D01*
X124412477Y-96242000D01*
X124507715Y-96337238D01*
X124555334Y-96432476D01*
X124602953Y-96622952D01*
X124602953Y-96765810D01*
X124555334Y-96956286D01*
X124507715Y-97051524D01*
X124412477Y-97146762D01*
X124269619Y-97194381D01*
X124031524Y-97194381D01*
X125460096Y-96194381D02*
X125269619Y-96194381D01*
X125174381Y-96242000D01*
X125126762Y-96289619D01*
X125031524Y-96432476D01*
X124983905Y-96622952D01*
X124983905Y-97003905D01*
X125031524Y-97099143D01*
X125079143Y-97146762D01*
X125174381Y-97194381D01*
X125364858Y-97194381D01*
X125460096Y-97146762D01*
X125507715Y-97099143D01*
X125555334Y-97003905D01*
X125555334Y-96765810D01*
X125507715Y-96670571D01*
X125460096Y-96622952D01*
X125364858Y-96575333D01*
X125174381Y-96575333D01*
X125079143Y-96622952D01*
X125031524Y-96670571D01*
X124983905Y-96765810D01*
X126126762Y-96622952D02*
X126031524Y-96575333D01*
X125983905Y-96527714D01*
X125936286Y-96432476D01*
X125936286Y-96384857D01*
X125983905Y-96289619D01*
X126031524Y-96242000D01*
X126126762Y-96194381D01*
X126317239Y-96194381D01*
X126412477Y-96242000D01*
X126460096Y-96289619D01*
X126507715Y-96384857D01*
X126507715Y-96432476D01*
X126460096Y-96527714D01*
X126412477Y-96575333D01*
X126317239Y-96622952D01*
X126126762Y-96622952D01*
X126031524Y-96670571D01*
X125983905Y-96718190D01*
X125936286Y-96813429D01*
X125936286Y-97003905D01*
X125983905Y-97099143D01*
X126031524Y-97146762D01*
X126126762Y-97194381D01*
X126317239Y-97194381D01*
X126412477Y-97146762D01*
X126460096Y-97099143D01*
X126507715Y-97003905D01*
X126507715Y-96813429D01*
X126460096Y-96718190D01*
X126412477Y-96670571D01*
X126317239Y-96622952D01*
X127460096Y-97194381D02*
X126888667Y-97194381D01*
X127174381Y-97194381D02*
X127174381Y-96194381D01*
X127079143Y-96337238D01*
X126983905Y-96432476D01*
X126888667Y-96480095D01*
X124650572Y-90899619D02*
X124555334Y-90852000D01*
X124460096Y-90756762D01*
X124317239Y-90613905D01*
X124222000Y-90566286D01*
X124126762Y-90566286D01*
X124174381Y-90804381D02*
X124079143Y-90756762D01*
X123983905Y-90661524D01*
X123936286Y-90471048D01*
X123936286Y-90137714D01*
X123983905Y-89947238D01*
X124079143Y-89852000D01*
X124174381Y-89804381D01*
X124364858Y-89804381D01*
X124460096Y-89852000D01*
X124555334Y-89947238D01*
X124602953Y-90137714D01*
X124602953Y-90471048D01*
X124555334Y-90661524D01*
X124460096Y-90756762D01*
X124364858Y-90804381D01*
X124174381Y-90804381D01*
X125555334Y-90804381D02*
X124983905Y-90804381D01*
X125269619Y-90804381D02*
X125269619Y-89804381D01*
X125174381Y-89947238D01*
X125079143Y-90042476D01*
X124983905Y-90090095D01*
X125936286Y-89899619D02*
X125983905Y-89852000D01*
X126079143Y-89804381D01*
X126317239Y-89804381D01*
X126412477Y-89852000D01*
X126460096Y-89899619D01*
X126507715Y-89994857D01*
X126507715Y-90090095D01*
X126460096Y-90232952D01*
X125888667Y-90804381D01*
X126507715Y-90804381D01*
X139112858Y-95210571D02*
X139255715Y-95258190D01*
X139303334Y-95305810D01*
X139350953Y-95401048D01*
X139350953Y-95543905D01*
X139303334Y-95639143D01*
X139255715Y-95686762D01*
X139160477Y-95734381D01*
X138779524Y-95734381D01*
X138779524Y-94734381D01*
X139112858Y-94734381D01*
X139208096Y-94782000D01*
X139255715Y-94829619D01*
X139303334Y-94924857D01*
X139303334Y-95020095D01*
X139255715Y-95115333D01*
X139208096Y-95162952D01*
X139112858Y-95210571D01*
X138779524Y-95210571D01*
X139779524Y-95734381D02*
X139779524Y-94734381D01*
X140017619Y-94734381D01*
X140160477Y-94782000D01*
X140255715Y-94877238D01*
X140303334Y-94972476D01*
X140350953Y-95162952D01*
X140350953Y-95305810D01*
X140303334Y-95496286D01*
X140255715Y-95591524D01*
X140160477Y-95686762D01*
X140017619Y-95734381D01*
X139779524Y-95734381D01*
X141208096Y-94734381D02*
X141017619Y-94734381D01*
X140922381Y-94782000D01*
X140874762Y-94829619D01*
X140779524Y-94972476D01*
X140731905Y-95162952D01*
X140731905Y-95543905D01*
X140779524Y-95639143D01*
X140827143Y-95686762D01*
X140922381Y-95734381D01*
X141112858Y-95734381D01*
X141208096Y-95686762D01*
X141255715Y-95639143D01*
X141303334Y-95543905D01*
X141303334Y-95305810D01*
X141255715Y-95210571D01*
X141208096Y-95162952D01*
X141112858Y-95115333D01*
X140922381Y-95115333D01*
X140827143Y-95162952D01*
X140779524Y-95210571D01*
X140731905Y-95305810D01*
X141874762Y-95162952D02*
X141779524Y-95115333D01*
X141731905Y-95067714D01*
X141684286Y-94972476D01*
X141684286Y-94924857D01*
X141731905Y-94829619D01*
X141779524Y-94782000D01*
X141874762Y-94734381D01*
X142065239Y-94734381D01*
X142160477Y-94782000D01*
X142208096Y-94829619D01*
X142255715Y-94924857D01*
X142255715Y-94972476D01*
X142208096Y-95067714D01*
X142160477Y-95115333D01*
X142065239Y-95162952D01*
X141874762Y-95162952D01*
X141779524Y-95210571D01*
X141731905Y-95258190D01*
X141684286Y-95353429D01*
X141684286Y-95543905D01*
X141731905Y-95639143D01*
X141779524Y-95686762D01*
X141874762Y-95734381D01*
X142065239Y-95734381D01*
X142160477Y-95686762D01*
X142208096Y-95639143D01*
X142255715Y-95543905D01*
X142255715Y-95353429D01*
X142208096Y-95258190D01*
X142160477Y-95210571D01*
X142065239Y-95162952D01*
X143208096Y-95734381D02*
X142636667Y-95734381D01*
X142922381Y-95734381D02*
X142922381Y-94734381D01*
X142827143Y-94877238D01*
X142731905Y-94972476D01*
X142636667Y-95020095D01*
X140398572Y-102219619D02*
X140303334Y-102172000D01*
X140208096Y-102076762D01*
X140065239Y-101933905D01*
X139970000Y-101886286D01*
X139874762Y-101886286D01*
X139922381Y-102124381D02*
X139827143Y-102076762D01*
X139731905Y-101981524D01*
X139684286Y-101791048D01*
X139684286Y-101457714D01*
X139731905Y-101267238D01*
X139827143Y-101172000D01*
X139922381Y-101124381D01*
X140112858Y-101124381D01*
X140208096Y-101172000D01*
X140303334Y-101267238D01*
X140350953Y-101457714D01*
X140350953Y-101791048D01*
X140303334Y-101981524D01*
X140208096Y-102076762D01*
X140112858Y-102124381D01*
X139922381Y-102124381D01*
X141303334Y-102124381D02*
X140731905Y-102124381D01*
X141017619Y-102124381D02*
X141017619Y-101124381D01*
X140922381Y-101267238D01*
X140827143Y-101362476D01*
X140731905Y-101410095D01*
X141636667Y-101124381D02*
X142255715Y-101124381D01*
X141922381Y-101505333D01*
X142065239Y-101505333D01*
X142160477Y-101552952D01*
X142208096Y-101600571D01*
X142255715Y-101695810D01*
X142255715Y-101933905D01*
X142208096Y-102029143D01*
X142160477Y-102076762D01*
X142065239Y-102124381D01*
X141779524Y-102124381D01*
X141684286Y-102076762D01*
X141636667Y-102029143D01*
X139112858Y-100290571D02*
X139255715Y-100338190D01*
X139303334Y-100385810D01*
X139350953Y-100481048D01*
X139350953Y-100623905D01*
X139303334Y-100719143D01*
X139255715Y-100766762D01*
X139160477Y-100814381D01*
X138779524Y-100814381D01*
X138779524Y-99814381D01*
X139112858Y-99814381D01*
X139208096Y-99862000D01*
X139255715Y-99909619D01*
X139303334Y-100004857D01*
X139303334Y-100100095D01*
X139255715Y-100195333D01*
X139208096Y-100242952D01*
X139112858Y-100290571D01*
X138779524Y-100290571D01*
X139779524Y-100814381D02*
X139779524Y-99814381D01*
X140017619Y-99814381D01*
X140160477Y-99862000D01*
X140255715Y-99957238D01*
X140303334Y-100052476D01*
X140350953Y-100242952D01*
X140350953Y-100385810D01*
X140303334Y-100576286D01*
X140255715Y-100671524D01*
X140160477Y-100766762D01*
X140017619Y-100814381D01*
X139779524Y-100814381D01*
X141208096Y-99814381D02*
X141017619Y-99814381D01*
X140922381Y-99862000D01*
X140874762Y-99909619D01*
X140779524Y-100052476D01*
X140731905Y-100242952D01*
X140731905Y-100623905D01*
X140779524Y-100719143D01*
X140827143Y-100766762D01*
X140922381Y-100814381D01*
X141112858Y-100814381D01*
X141208096Y-100766762D01*
X141255715Y-100719143D01*
X141303334Y-100623905D01*
X141303334Y-100385810D01*
X141255715Y-100290571D01*
X141208096Y-100242952D01*
X141112858Y-100195333D01*
X140922381Y-100195333D01*
X140827143Y-100242952D01*
X140779524Y-100290571D01*
X140731905Y-100385810D01*
X141874762Y-100242952D02*
X141779524Y-100195333D01*
X141731905Y-100147714D01*
X141684286Y-100052476D01*
X141684286Y-100004857D01*
X141731905Y-99909619D01*
X141779524Y-99862000D01*
X141874762Y-99814381D01*
X142065239Y-99814381D01*
X142160477Y-99862000D01*
X142208096Y-99909619D01*
X142255715Y-100004857D01*
X142255715Y-100052476D01*
X142208096Y-100147714D01*
X142160477Y-100195333D01*
X142065239Y-100242952D01*
X141874762Y-100242952D01*
X141779524Y-100290571D01*
X141731905Y-100338190D01*
X141684286Y-100433429D01*
X141684286Y-100623905D01*
X141731905Y-100719143D01*
X141779524Y-100766762D01*
X141874762Y-100814381D01*
X142065239Y-100814381D01*
X142160477Y-100766762D01*
X142208096Y-100719143D01*
X142255715Y-100623905D01*
X142255715Y-100433429D01*
X142208096Y-100338190D01*
X142160477Y-100290571D01*
X142065239Y-100242952D01*
X143208096Y-100814381D02*
X142636667Y-100814381D01*
X142922381Y-100814381D02*
X142922381Y-99814381D01*
X142827143Y-99957238D01*
X142731905Y-100052476D01*
X142636667Y-100100095D01*
X140398572Y-107299619D02*
X140303334Y-107252000D01*
X140208096Y-107156762D01*
X140065239Y-107013905D01*
X139970000Y-106966286D01*
X139874762Y-106966286D01*
X139922381Y-107204381D02*
X139827143Y-107156762D01*
X139731905Y-107061524D01*
X139684286Y-106871048D01*
X139684286Y-106537714D01*
X139731905Y-106347238D01*
X139827143Y-106252000D01*
X139922381Y-106204381D01*
X140112858Y-106204381D01*
X140208096Y-106252000D01*
X140303334Y-106347238D01*
X140350953Y-106537714D01*
X140350953Y-106871048D01*
X140303334Y-107061524D01*
X140208096Y-107156762D01*
X140112858Y-107204381D01*
X139922381Y-107204381D01*
X141303334Y-107204381D02*
X140731905Y-107204381D01*
X141017619Y-107204381D02*
X141017619Y-106204381D01*
X140922381Y-106347238D01*
X140827143Y-106442476D01*
X140731905Y-106490095D01*
X142160477Y-106537714D02*
X142160477Y-107204381D01*
X141922381Y-106156762D02*
X141684286Y-106871048D01*
X142303334Y-106871048D01*
X139112858Y-105370571D02*
X139255715Y-105418190D01*
X139303334Y-105465810D01*
X139350953Y-105561048D01*
X139350953Y-105703905D01*
X139303334Y-105799143D01*
X139255715Y-105846762D01*
X139160477Y-105894381D01*
X138779524Y-105894381D01*
X138779524Y-104894381D01*
X139112858Y-104894381D01*
X139208096Y-104942000D01*
X139255715Y-104989619D01*
X139303334Y-105084857D01*
X139303334Y-105180095D01*
X139255715Y-105275333D01*
X139208096Y-105322952D01*
X139112858Y-105370571D01*
X138779524Y-105370571D01*
X139779524Y-105894381D02*
X139779524Y-104894381D01*
X140017619Y-104894381D01*
X140160477Y-104942000D01*
X140255715Y-105037238D01*
X140303334Y-105132476D01*
X140350953Y-105322952D01*
X140350953Y-105465810D01*
X140303334Y-105656286D01*
X140255715Y-105751524D01*
X140160477Y-105846762D01*
X140017619Y-105894381D01*
X139779524Y-105894381D01*
X141208096Y-104894381D02*
X141017619Y-104894381D01*
X140922381Y-104942000D01*
X140874762Y-104989619D01*
X140779524Y-105132476D01*
X140731905Y-105322952D01*
X140731905Y-105703905D01*
X140779524Y-105799143D01*
X140827143Y-105846762D01*
X140922381Y-105894381D01*
X141112858Y-105894381D01*
X141208096Y-105846762D01*
X141255715Y-105799143D01*
X141303334Y-105703905D01*
X141303334Y-105465810D01*
X141255715Y-105370571D01*
X141208096Y-105322952D01*
X141112858Y-105275333D01*
X140922381Y-105275333D01*
X140827143Y-105322952D01*
X140779524Y-105370571D01*
X140731905Y-105465810D01*
X141874762Y-105322952D02*
X141779524Y-105275333D01*
X141731905Y-105227714D01*
X141684286Y-105132476D01*
X141684286Y-105084857D01*
X141731905Y-104989619D01*
X141779524Y-104942000D01*
X141874762Y-104894381D01*
X142065239Y-104894381D01*
X142160477Y-104942000D01*
X142208096Y-104989619D01*
X142255715Y-105084857D01*
X142255715Y-105132476D01*
X142208096Y-105227714D01*
X142160477Y-105275333D01*
X142065239Y-105322952D01*
X141874762Y-105322952D01*
X141779524Y-105370571D01*
X141731905Y-105418190D01*
X141684286Y-105513429D01*
X141684286Y-105703905D01*
X141731905Y-105799143D01*
X141779524Y-105846762D01*
X141874762Y-105894381D01*
X142065239Y-105894381D01*
X142160477Y-105846762D01*
X142208096Y-105799143D01*
X142255715Y-105703905D01*
X142255715Y-105513429D01*
X142208096Y-105418190D01*
X142160477Y-105370571D01*
X142065239Y-105322952D01*
X143208096Y-105894381D02*
X142636667Y-105894381D01*
X142922381Y-105894381D02*
X142922381Y-104894381D01*
X142827143Y-105037238D01*
X142731905Y-105132476D01*
X142636667Y-105180095D01*
X140398572Y-112379619D02*
X140303334Y-112332000D01*
X140208096Y-112236762D01*
X140065239Y-112093905D01*
X139970000Y-112046286D01*
X139874762Y-112046286D01*
X139922381Y-112284381D02*
X139827143Y-112236762D01*
X139731905Y-112141524D01*
X139684286Y-111951048D01*
X139684286Y-111617714D01*
X139731905Y-111427238D01*
X139827143Y-111332000D01*
X139922381Y-111284381D01*
X140112858Y-111284381D01*
X140208096Y-111332000D01*
X140303334Y-111427238D01*
X140350953Y-111617714D01*
X140350953Y-111951048D01*
X140303334Y-112141524D01*
X140208096Y-112236762D01*
X140112858Y-112284381D01*
X139922381Y-112284381D01*
X141303334Y-112284381D02*
X140731905Y-112284381D01*
X141017619Y-112284381D02*
X141017619Y-111284381D01*
X140922381Y-111427238D01*
X140827143Y-111522476D01*
X140731905Y-111570095D01*
X142208096Y-111284381D02*
X141731905Y-111284381D01*
X141684286Y-111760571D01*
X141731905Y-111712952D01*
X141827143Y-111665333D01*
X142065239Y-111665333D01*
X142160477Y-111712952D01*
X142208096Y-111760571D01*
X142255715Y-111855810D01*
X142255715Y-112093905D01*
X142208096Y-112189143D01*
X142160477Y-112236762D01*
X142065239Y-112284381D01*
X141827143Y-112284381D01*
X141731905Y-112236762D01*
X141684286Y-112189143D01*
X141652858Y-96416571D02*
X141795715Y-96464190D01*
X141843334Y-96511810D01*
X141890953Y-96607048D01*
X141890953Y-96749905D01*
X141843334Y-96845143D01*
X141795715Y-96892762D01*
X141700477Y-96940381D01*
X141319524Y-96940381D01*
X141319524Y-95940381D01*
X141652858Y-95940381D01*
X141748096Y-95988000D01*
X141795715Y-96035619D01*
X141843334Y-96130857D01*
X141843334Y-96226095D01*
X141795715Y-96321333D01*
X141748096Y-96368952D01*
X141652858Y-96416571D01*
X141319524Y-96416571D01*
X142319524Y-96940381D02*
X142319524Y-95940381D01*
X142557619Y-95940381D01*
X142700477Y-95988000D01*
X142795715Y-96083238D01*
X142843334Y-96178476D01*
X142890953Y-96368952D01*
X142890953Y-96511810D01*
X142843334Y-96702286D01*
X142795715Y-96797524D01*
X142700477Y-96892762D01*
X142557619Y-96940381D01*
X142319524Y-96940381D01*
X143748096Y-95940381D02*
X143557619Y-95940381D01*
X143462381Y-95988000D01*
X143414762Y-96035619D01*
X143319524Y-96178476D01*
X143271905Y-96368952D01*
X143271905Y-96749905D01*
X143319524Y-96845143D01*
X143367143Y-96892762D01*
X143462381Y-96940381D01*
X143652858Y-96940381D01*
X143748096Y-96892762D01*
X143795715Y-96845143D01*
X143843334Y-96749905D01*
X143843334Y-96511810D01*
X143795715Y-96416571D01*
X143748096Y-96368952D01*
X143652858Y-96321333D01*
X143462381Y-96321333D01*
X143367143Y-96368952D01*
X143319524Y-96416571D01*
X143271905Y-96511810D01*
X144414762Y-96368952D02*
X144319524Y-96321333D01*
X144271905Y-96273714D01*
X144224286Y-96178476D01*
X144224286Y-96130857D01*
X144271905Y-96035619D01*
X144319524Y-95988000D01*
X144414762Y-95940381D01*
X144605239Y-95940381D01*
X144700477Y-95988000D01*
X144748096Y-96035619D01*
X144795715Y-96130857D01*
X144795715Y-96178476D01*
X144748096Y-96273714D01*
X144700477Y-96321333D01*
X144605239Y-96368952D01*
X144414762Y-96368952D01*
X144319524Y-96416571D01*
X144271905Y-96464190D01*
X144224286Y-96559429D01*
X144224286Y-96749905D01*
X144271905Y-96845143D01*
X144319524Y-96892762D01*
X144414762Y-96940381D01*
X144605239Y-96940381D01*
X144700477Y-96892762D01*
X144748096Y-96845143D01*
X144795715Y-96749905D01*
X144795715Y-96559429D01*
X144748096Y-96464190D01*
X144700477Y-96416571D01*
X144605239Y-96368952D01*
X145748096Y-96940381D02*
X145176667Y-96940381D01*
X145462381Y-96940381D02*
X145462381Y-95940381D01*
X145367143Y-96083238D01*
X145271905Y-96178476D01*
X145176667Y-96226095D01*
X142938572Y-90645619D02*
X142843334Y-90598000D01*
X142748096Y-90502762D01*
X142605239Y-90359905D01*
X142510000Y-90312286D01*
X142414762Y-90312286D01*
X142462381Y-90550381D02*
X142367143Y-90502762D01*
X142271905Y-90407524D01*
X142224286Y-90217048D01*
X142224286Y-89883714D01*
X142271905Y-89693238D01*
X142367143Y-89598000D01*
X142462381Y-89550381D01*
X142652858Y-89550381D01*
X142748096Y-89598000D01*
X142843334Y-89693238D01*
X142890953Y-89883714D01*
X142890953Y-90217048D01*
X142843334Y-90407524D01*
X142748096Y-90502762D01*
X142652858Y-90550381D01*
X142462381Y-90550381D01*
X143843334Y-90550381D02*
X143271905Y-90550381D01*
X143557619Y-90550381D02*
X143557619Y-89550381D01*
X143462381Y-89693238D01*
X143367143Y-89788476D01*
X143271905Y-89836095D01*
X144700477Y-89550381D02*
X144510000Y-89550381D01*
X144414762Y-89598000D01*
X144367143Y-89645619D01*
X144271905Y-89788476D01*
X144224286Y-89978952D01*
X144224286Y-90359905D01*
X144271905Y-90455143D01*
X144319524Y-90502762D01*
X144414762Y-90550381D01*
X144605239Y-90550381D01*
X144700477Y-90502762D01*
X144748096Y-90455143D01*
X144795715Y-90359905D01*
X144795715Y-90121810D01*
X144748096Y-90026571D01*
X144700477Y-89978952D01*
X144605239Y-89931333D01*
X144414762Y-89931333D01*
X144319524Y-89978952D01*
X144271905Y-90026571D01*
X144224286Y-90121810D01*
M02*
