G04 #@! TF.FileFunction,Legend,Top*
%FSLAX46Y46*%
G04 Gerber Fmt 4.6, Leading zero omitted, Abs format (unit mm)*
G04 Created by KiCad (PCBNEW 4.0.6) date 01/15/18 08:07:30*
%MOMM*%
%LPD*%
G01*
G04 APERTURE LIST*
%ADD10C,0.100000*%
%ADD11C,0.150000*%
%ADD12C,0.381000*%
%ADD13C,0.120000*%
%ADD14C,0.304800*%
G04 APERTURE END LIST*
D10*
D11*
X151384000Y-120396000D02*
G75*
G03X152654000Y-119126000I0J1270000D01*
G01*
X152654000Y-65786000D02*
X152654000Y-67056000D01*
X150114000Y-64516000D02*
X151384000Y-64516000D01*
X85344000Y-64516000D02*
G75*
G03X84074000Y-65786000I0J-1270000D01*
G01*
X84074000Y-119126000D02*
G75*
G03X85344000Y-120396000I1270000J0D01*
G01*
D12*
X152654000Y-78486000D02*
X152654000Y-67056000D01*
X152654000Y-65786000D02*
X151384000Y-64516000D01*
X150114000Y-64516000D02*
X85344000Y-64516000D01*
X151384000Y-120396000D02*
X85344000Y-120396000D01*
X84074000Y-119126000D02*
X84074000Y-65786000D01*
X152654000Y-78486000D02*
X155194000Y-81026000D01*
X155194000Y-81026000D02*
X155194000Y-114046000D01*
X155194000Y-114046000D02*
X152654000Y-116586000D01*
X152654000Y-116586000D02*
X152654000Y-119126000D01*
D13*
X90758000Y-72418000D02*
X81958000Y-72418000D01*
X81958000Y-72418000D02*
X81958000Y-63218000D01*
X96658000Y-69718000D02*
X96658000Y-72418000D01*
X96658000Y-72418000D02*
X94758000Y-72418000D01*
X81958000Y-63218000D02*
X96658000Y-63218000D01*
X96658000Y-63218000D02*
X96658000Y-65818000D01*
X87316000Y-117154000D02*
X89976000Y-117154000D01*
X87316000Y-76454000D02*
X87316000Y-117154000D01*
X89976000Y-76454000D02*
X89976000Y-117154000D01*
X87316000Y-76454000D02*
X89976000Y-76454000D01*
X87316000Y-75184000D02*
X87316000Y-73854000D01*
X87316000Y-73854000D02*
X88646000Y-73854000D01*
X134274000Y-85480000D02*
X135474000Y-85480000D01*
X135474000Y-87240000D02*
X134274000Y-87240000D01*
X134274000Y-76336000D02*
X135474000Y-76336000D01*
X135474000Y-78096000D02*
X134274000Y-78096000D01*
X125340000Y-71790000D02*
X125340000Y-72990000D01*
X123580000Y-72990000D02*
X123580000Y-71790000D01*
X138802000Y-71536000D02*
X138802000Y-72736000D01*
X137042000Y-72736000D02*
X137042000Y-71536000D01*
X122800000Y-71790000D02*
X122800000Y-72990000D01*
X121040000Y-72990000D02*
X121040000Y-71790000D01*
X120260000Y-71790000D02*
X120260000Y-72990000D01*
X118500000Y-72990000D02*
X118500000Y-71790000D01*
X144976214Y-84110000D02*
G75*
G03X144976214Y-84110000I-1414214J0D01*
G01*
X146532000Y-80990000D02*
X140592000Y-80990000D01*
X146532000Y-87230000D02*
X140592000Y-87230000D01*
X146682000Y-82770000D02*
X146682000Y-85450000D01*
X140442000Y-85450000D02*
X140442000Y-82770000D01*
X144976214Y-74966000D02*
G75*
G03X144976214Y-74966000I-1414214J0D01*
G01*
X146532000Y-71846000D02*
X140592000Y-71846000D01*
X146532000Y-78086000D02*
X140592000Y-78086000D01*
X146682000Y-73626000D02*
X146682000Y-76306000D01*
X140442000Y-76306000D02*
X140442000Y-73626000D01*
X94432000Y-106592000D02*
X102672000Y-106592000D01*
X94432000Y-110082000D02*
X102672000Y-110082000D01*
X94432000Y-106592000D02*
X94432000Y-110082000D01*
X102672000Y-106592000D02*
X102672000Y-110082000D01*
X96952000Y-106592000D02*
X96952000Y-107662000D01*
X96952000Y-109762000D02*
X96952000Y-110082000D01*
X100153000Y-106592000D02*
X100153000Y-108172000D01*
X100153000Y-109252000D02*
X100153000Y-110082000D01*
X94432000Y-101512000D02*
X102672000Y-101512000D01*
X94432000Y-105002000D02*
X102672000Y-105002000D01*
X94432000Y-101512000D02*
X94432000Y-105002000D01*
X102672000Y-101512000D02*
X102672000Y-105002000D01*
X96952000Y-101512000D02*
X96952000Y-102582000D01*
X96952000Y-104682000D02*
X96952000Y-105002000D01*
X100153000Y-101512000D02*
X100153000Y-103092000D01*
X100153000Y-104172000D02*
X100153000Y-105002000D01*
X94432000Y-96432000D02*
X102672000Y-96432000D01*
X94432000Y-99922000D02*
X102672000Y-99922000D01*
X94432000Y-96432000D02*
X94432000Y-99922000D01*
X102672000Y-96432000D02*
X102672000Y-99922000D01*
X96952000Y-96432000D02*
X96952000Y-97502000D01*
X96952000Y-99602000D02*
X96952000Y-99922000D01*
X100153000Y-96432000D02*
X100153000Y-98012000D01*
X100153000Y-99092000D02*
X100153000Y-99922000D01*
X97226000Y-91352000D02*
X105466000Y-91352000D01*
X97226000Y-94842000D02*
X105466000Y-94842000D01*
X97226000Y-91352000D02*
X97226000Y-94842000D01*
X105466000Y-91352000D02*
X105466000Y-94842000D01*
X99746000Y-91352000D02*
X99746000Y-92422000D01*
X99746000Y-94522000D02*
X99746000Y-94842000D01*
X102947000Y-91352000D02*
X102947000Y-92932000D01*
X102947000Y-94012000D02*
X102947000Y-94842000D01*
X114102000Y-110832000D02*
X105862000Y-110832000D01*
X114102000Y-107342000D02*
X105862000Y-107342000D01*
X114102000Y-110832000D02*
X114102000Y-107342000D01*
X105862000Y-110832000D02*
X105862000Y-107342000D01*
X111582000Y-110832000D02*
X111582000Y-109762000D01*
X111582000Y-107662000D02*
X111582000Y-107342000D01*
X108381000Y-110832000D02*
X108381000Y-109252000D01*
X108381000Y-108172000D02*
X108381000Y-107342000D01*
X114102000Y-105752000D02*
X105862000Y-105752000D01*
X114102000Y-102262000D02*
X105862000Y-102262000D01*
X114102000Y-105752000D02*
X114102000Y-102262000D01*
X105862000Y-105752000D02*
X105862000Y-102262000D01*
X111582000Y-105752000D02*
X111582000Y-104682000D01*
X111582000Y-102582000D02*
X111582000Y-102262000D01*
X108381000Y-105752000D02*
X108381000Y-104172000D01*
X108381000Y-103092000D02*
X108381000Y-102262000D01*
X114102000Y-100672000D02*
X105862000Y-100672000D01*
X114102000Y-97182000D02*
X105862000Y-97182000D01*
X114102000Y-100672000D02*
X114102000Y-97182000D01*
X105862000Y-100672000D02*
X105862000Y-97182000D01*
X111582000Y-100672000D02*
X111582000Y-99602000D01*
X111582000Y-97502000D02*
X111582000Y-97182000D01*
X108381000Y-100672000D02*
X108381000Y-99092000D01*
X108381000Y-98012000D02*
X108381000Y-97182000D01*
X108402000Y-91352000D02*
X116642000Y-91352000D01*
X108402000Y-94842000D02*
X116642000Y-94842000D01*
X108402000Y-91352000D02*
X108402000Y-94842000D01*
X116642000Y-91352000D02*
X116642000Y-94842000D01*
X110922000Y-91352000D02*
X110922000Y-92422000D01*
X110922000Y-94522000D02*
X110922000Y-94842000D01*
X114123000Y-91352000D02*
X114123000Y-92932000D01*
X114123000Y-94012000D02*
X114123000Y-94842000D01*
X123642000Y-106592000D02*
X131882000Y-106592000D01*
X123642000Y-110082000D02*
X131882000Y-110082000D01*
X123642000Y-106592000D02*
X123642000Y-110082000D01*
X131882000Y-106592000D02*
X131882000Y-110082000D01*
X126162000Y-106592000D02*
X126162000Y-107662000D01*
X126162000Y-109762000D02*
X126162000Y-110082000D01*
X129363000Y-106592000D02*
X129363000Y-108172000D01*
X129363000Y-109252000D02*
X129363000Y-110082000D01*
X123642000Y-101512000D02*
X131882000Y-101512000D01*
X123642000Y-105002000D02*
X131882000Y-105002000D01*
X123642000Y-101512000D02*
X123642000Y-105002000D01*
X131882000Y-101512000D02*
X131882000Y-105002000D01*
X126162000Y-101512000D02*
X126162000Y-102582000D01*
X126162000Y-104682000D02*
X126162000Y-105002000D01*
X129363000Y-101512000D02*
X129363000Y-103092000D01*
X129363000Y-104172000D02*
X129363000Y-105002000D01*
X123642000Y-96432000D02*
X131882000Y-96432000D01*
X123642000Y-99922000D02*
X131882000Y-99922000D01*
X123642000Y-96432000D02*
X123642000Y-99922000D01*
X131882000Y-96432000D02*
X131882000Y-99922000D01*
X126162000Y-96432000D02*
X126162000Y-97502000D01*
X126162000Y-99602000D02*
X126162000Y-99922000D01*
X129363000Y-96432000D02*
X129363000Y-98012000D01*
X129363000Y-99092000D02*
X129363000Y-99922000D01*
X121102000Y-91352000D02*
X129342000Y-91352000D01*
X121102000Y-94842000D02*
X129342000Y-94842000D01*
X121102000Y-91352000D02*
X121102000Y-94842000D01*
X129342000Y-91352000D02*
X129342000Y-94842000D01*
X123622000Y-91352000D02*
X123622000Y-92422000D01*
X123622000Y-94522000D02*
X123622000Y-94842000D01*
X126823000Y-91352000D02*
X126823000Y-92932000D01*
X126823000Y-94012000D02*
X126823000Y-94842000D01*
X145090000Y-100672000D02*
X136850000Y-100672000D01*
X145090000Y-97182000D02*
X136850000Y-97182000D01*
X145090000Y-100672000D02*
X145090000Y-97182000D01*
X136850000Y-100672000D02*
X136850000Y-97182000D01*
X142570000Y-100672000D02*
X142570000Y-99602000D01*
X142570000Y-97502000D02*
X142570000Y-97182000D01*
X139369000Y-100672000D02*
X139369000Y-99092000D01*
X139369000Y-98012000D02*
X139369000Y-97182000D01*
X145090000Y-105752000D02*
X136850000Y-105752000D01*
X145090000Y-102262000D02*
X136850000Y-102262000D01*
X145090000Y-105752000D02*
X145090000Y-102262000D01*
X136850000Y-105752000D02*
X136850000Y-102262000D01*
X142570000Y-105752000D02*
X142570000Y-104682000D01*
X142570000Y-102582000D02*
X142570000Y-102262000D01*
X139369000Y-105752000D02*
X139369000Y-104172000D01*
X139369000Y-103092000D02*
X139369000Y-102262000D01*
X145090000Y-110832000D02*
X136850000Y-110832000D01*
X145090000Y-107342000D02*
X136850000Y-107342000D01*
X145090000Y-110832000D02*
X145090000Y-107342000D01*
X136850000Y-110832000D02*
X136850000Y-107342000D01*
X142570000Y-110832000D02*
X142570000Y-109762000D01*
X142570000Y-107662000D02*
X142570000Y-107342000D01*
X139369000Y-110832000D02*
X139369000Y-109252000D01*
X139369000Y-108172000D02*
X139369000Y-107342000D01*
X139390000Y-91098000D02*
X147630000Y-91098000D01*
X139390000Y-94588000D02*
X147630000Y-94588000D01*
X139390000Y-91098000D02*
X139390000Y-94588000D01*
X147630000Y-91098000D02*
X147630000Y-94588000D01*
X141910000Y-91098000D02*
X141910000Y-92168000D01*
X141910000Y-94268000D02*
X141910000Y-94588000D01*
X145111000Y-91098000D02*
X145111000Y-92678000D01*
X145111000Y-93758000D02*
X145111000Y-94588000D01*
D14*
X83493429Y-62592857D02*
X83711143Y-62665429D01*
X84074000Y-62665429D01*
X84219143Y-62592857D01*
X84291714Y-62520286D01*
X84364286Y-62375143D01*
X84364286Y-62230000D01*
X84291714Y-62084857D01*
X84219143Y-62012286D01*
X84074000Y-61939714D01*
X83783714Y-61867143D01*
X83638572Y-61794571D01*
X83566000Y-61722000D01*
X83493429Y-61576857D01*
X83493429Y-61431714D01*
X83566000Y-61286571D01*
X83638572Y-61214000D01*
X83783714Y-61141429D01*
X84146572Y-61141429D01*
X84364286Y-61214000D01*
X85017429Y-62665429D02*
X85017429Y-61141429D01*
X85017429Y-61867143D02*
X85888286Y-61867143D01*
X85888286Y-62665429D02*
X85888286Y-61141429D01*
X86614000Y-62665429D02*
X86614000Y-61141429D01*
X87339714Y-61867143D02*
X87847714Y-61867143D01*
X88065428Y-62665429D02*
X87339714Y-62665429D01*
X87339714Y-61141429D01*
X88065428Y-61141429D01*
X89444285Y-62665429D02*
X88718571Y-62665429D01*
X88718571Y-61141429D01*
X89952285Y-62665429D02*
X89952285Y-61141429D01*
X90315142Y-61141429D01*
X90532857Y-61214000D01*
X90677999Y-61359143D01*
X90750571Y-61504286D01*
X90823142Y-61794571D01*
X90823142Y-62012286D01*
X90750571Y-62302571D01*
X90677999Y-62447714D01*
X90532857Y-62592857D01*
X90315142Y-62665429D01*
X89952285Y-62665429D01*
X92274571Y-62665429D02*
X91403714Y-62665429D01*
X91839142Y-62665429D02*
X91839142Y-61141429D01*
X91693999Y-61359143D01*
X91548857Y-61504286D01*
X91403714Y-61576857D01*
D11*
X86974667Y-73020381D02*
X86974667Y-73734667D01*
X86927047Y-73877524D01*
X86831809Y-73972762D01*
X86688952Y-74020381D01*
X86593714Y-74020381D01*
X87974667Y-74020381D02*
X87403238Y-74020381D01*
X87688952Y-74020381D02*
X87688952Y-73020381D01*
X87593714Y-73163238D01*
X87498476Y-73258476D01*
X87403238Y-73306095D01*
X88312667Y-72306381D02*
X88312667Y-73020667D01*
X88265047Y-73163524D01*
X88169809Y-73258762D01*
X88026952Y-73306381D01*
X87931714Y-73306381D01*
X88741238Y-72401619D02*
X88788857Y-72354000D01*
X88884095Y-72306381D01*
X89122191Y-72306381D01*
X89217429Y-72354000D01*
X89265048Y-72401619D01*
X89312667Y-72496857D01*
X89312667Y-72592095D01*
X89265048Y-72734952D01*
X88693619Y-73306381D01*
X89312667Y-73306381D01*
X134707334Y-88512381D02*
X134374000Y-88036190D01*
X134135905Y-88512381D02*
X134135905Y-87512381D01*
X134516858Y-87512381D01*
X134612096Y-87560000D01*
X134659715Y-87607619D01*
X134707334Y-87702857D01*
X134707334Y-87845714D01*
X134659715Y-87940952D01*
X134612096Y-87988571D01*
X134516858Y-88036190D01*
X134135905Y-88036190D01*
X135659715Y-88512381D02*
X135088286Y-88512381D01*
X135374000Y-88512381D02*
X135374000Y-87512381D01*
X135278762Y-87655238D01*
X135183524Y-87750476D01*
X135088286Y-87798095D01*
X134707334Y-79368381D02*
X134374000Y-78892190D01*
X134135905Y-79368381D02*
X134135905Y-78368381D01*
X134516858Y-78368381D01*
X134612096Y-78416000D01*
X134659715Y-78463619D01*
X134707334Y-78558857D01*
X134707334Y-78701714D01*
X134659715Y-78796952D01*
X134612096Y-78844571D01*
X134516858Y-78892190D01*
X134135905Y-78892190D01*
X135088286Y-78463619D02*
X135135905Y-78416000D01*
X135231143Y-78368381D01*
X135469239Y-78368381D01*
X135564477Y-78416000D01*
X135612096Y-78463619D01*
X135659715Y-78558857D01*
X135659715Y-78654095D01*
X135612096Y-78796952D01*
X135040667Y-79368381D01*
X135659715Y-79368381D01*
X123212381Y-72556666D02*
X122736190Y-72890000D01*
X123212381Y-73128095D02*
X122212381Y-73128095D01*
X122212381Y-72747142D01*
X122260000Y-72651904D01*
X122307619Y-72604285D01*
X122402857Y-72556666D01*
X122545714Y-72556666D01*
X122640952Y-72604285D01*
X122688571Y-72651904D01*
X122736190Y-72747142D01*
X122736190Y-73128095D01*
X122212381Y-72223333D02*
X122212381Y-71604285D01*
X122593333Y-71937619D01*
X122593333Y-71794761D01*
X122640952Y-71699523D01*
X122688571Y-71651904D01*
X122783810Y-71604285D01*
X123021905Y-71604285D01*
X123117143Y-71651904D01*
X123164762Y-71699523D01*
X123212381Y-71794761D01*
X123212381Y-72080476D01*
X123164762Y-72175714D01*
X123117143Y-72223333D01*
X136674381Y-72302666D02*
X136198190Y-72636000D01*
X136674381Y-72874095D02*
X135674381Y-72874095D01*
X135674381Y-72493142D01*
X135722000Y-72397904D01*
X135769619Y-72350285D01*
X135864857Y-72302666D01*
X136007714Y-72302666D01*
X136102952Y-72350285D01*
X136150571Y-72397904D01*
X136198190Y-72493142D01*
X136198190Y-72874095D01*
X136007714Y-71445523D02*
X136674381Y-71445523D01*
X135626762Y-71683619D02*
X136341048Y-71921714D01*
X136341048Y-71302666D01*
X120672381Y-72556666D02*
X120196190Y-72890000D01*
X120672381Y-73128095D02*
X119672381Y-73128095D01*
X119672381Y-72747142D01*
X119720000Y-72651904D01*
X119767619Y-72604285D01*
X119862857Y-72556666D01*
X120005714Y-72556666D01*
X120100952Y-72604285D01*
X120148571Y-72651904D01*
X120196190Y-72747142D01*
X120196190Y-73128095D01*
X119672381Y-71651904D02*
X119672381Y-72128095D01*
X120148571Y-72175714D01*
X120100952Y-72128095D01*
X120053333Y-72032857D01*
X120053333Y-71794761D01*
X120100952Y-71699523D01*
X120148571Y-71651904D01*
X120243810Y-71604285D01*
X120481905Y-71604285D01*
X120577143Y-71651904D01*
X120624762Y-71699523D01*
X120672381Y-71794761D01*
X120672381Y-72032857D01*
X120624762Y-72128095D01*
X120577143Y-72175714D01*
X118132381Y-72556666D02*
X117656190Y-72890000D01*
X118132381Y-73128095D02*
X117132381Y-73128095D01*
X117132381Y-72747142D01*
X117180000Y-72651904D01*
X117227619Y-72604285D01*
X117322857Y-72556666D01*
X117465714Y-72556666D01*
X117560952Y-72604285D01*
X117608571Y-72651904D01*
X117656190Y-72747142D01*
X117656190Y-73128095D01*
X117132381Y-71699523D02*
X117132381Y-71890000D01*
X117180000Y-71985238D01*
X117227619Y-72032857D01*
X117370476Y-72128095D01*
X117560952Y-72175714D01*
X117941905Y-72175714D01*
X118037143Y-72128095D01*
X118084762Y-72080476D01*
X118132381Y-71985238D01*
X118132381Y-71794761D01*
X118084762Y-71699523D01*
X118037143Y-71651904D01*
X117941905Y-71604285D01*
X117703810Y-71604285D01*
X117608571Y-71651904D01*
X117560952Y-71699523D01*
X117513333Y-71794761D01*
X117513333Y-71985238D01*
X117560952Y-72080476D01*
X117608571Y-72128095D01*
X117703810Y-72175714D01*
X142228667Y-88814762D02*
X142371524Y-88862381D01*
X142609620Y-88862381D01*
X142704858Y-88814762D01*
X142752477Y-88767143D01*
X142800096Y-88671905D01*
X142800096Y-88576667D01*
X142752477Y-88481429D01*
X142704858Y-88433810D01*
X142609620Y-88386190D01*
X142419143Y-88338571D01*
X142323905Y-88290952D01*
X142276286Y-88243333D01*
X142228667Y-88148095D01*
X142228667Y-88052857D01*
X142276286Y-87957619D01*
X142323905Y-87910000D01*
X142419143Y-87862381D01*
X142657239Y-87862381D01*
X142800096Y-87910000D01*
X143133429Y-87862381D02*
X143371524Y-88862381D01*
X143562001Y-88148095D01*
X143752477Y-88862381D01*
X143990572Y-87862381D01*
X144895334Y-88862381D02*
X144323905Y-88862381D01*
X144609619Y-88862381D02*
X144609619Y-87862381D01*
X144514381Y-88005238D01*
X144419143Y-88100476D01*
X144323905Y-88148095D01*
X142228667Y-79670762D02*
X142371524Y-79718381D01*
X142609620Y-79718381D01*
X142704858Y-79670762D01*
X142752477Y-79623143D01*
X142800096Y-79527905D01*
X142800096Y-79432667D01*
X142752477Y-79337429D01*
X142704858Y-79289810D01*
X142609620Y-79242190D01*
X142419143Y-79194571D01*
X142323905Y-79146952D01*
X142276286Y-79099333D01*
X142228667Y-79004095D01*
X142228667Y-78908857D01*
X142276286Y-78813619D01*
X142323905Y-78766000D01*
X142419143Y-78718381D01*
X142657239Y-78718381D01*
X142800096Y-78766000D01*
X143133429Y-78718381D02*
X143371524Y-79718381D01*
X143562001Y-79004095D01*
X143752477Y-79718381D01*
X143990572Y-78718381D01*
X144323905Y-78813619D02*
X144371524Y-78766000D01*
X144466762Y-78718381D01*
X144704858Y-78718381D01*
X144800096Y-78766000D01*
X144847715Y-78813619D01*
X144895334Y-78908857D01*
X144895334Y-79004095D01*
X144847715Y-79146952D01*
X144276286Y-79718381D01*
X144895334Y-79718381D01*
X98456762Y-106139619D02*
X98361524Y-106092000D01*
X98266286Y-105996762D01*
X98123429Y-105853905D01*
X98028190Y-105806286D01*
X97932952Y-105806286D01*
X97980571Y-106044381D02*
X97885333Y-105996762D01*
X97790095Y-105901524D01*
X97742476Y-105711048D01*
X97742476Y-105377714D01*
X97790095Y-105187238D01*
X97885333Y-105092000D01*
X97980571Y-105044381D01*
X98171048Y-105044381D01*
X98266286Y-105092000D01*
X98361524Y-105187238D01*
X98409143Y-105377714D01*
X98409143Y-105711048D01*
X98361524Y-105901524D01*
X98266286Y-105996762D01*
X98171048Y-106044381D01*
X97980571Y-106044381D01*
X99361524Y-106044381D02*
X98790095Y-106044381D01*
X99075809Y-106044381D02*
X99075809Y-105044381D01*
X98980571Y-105187238D01*
X98885333Y-105282476D01*
X98790095Y-105330095D01*
X98456762Y-101059619D02*
X98361524Y-101012000D01*
X98266286Y-100916762D01*
X98123429Y-100773905D01*
X98028190Y-100726286D01*
X97932952Y-100726286D01*
X97980571Y-100964381D02*
X97885333Y-100916762D01*
X97790095Y-100821524D01*
X97742476Y-100631048D01*
X97742476Y-100297714D01*
X97790095Y-100107238D01*
X97885333Y-100012000D01*
X97980571Y-99964381D01*
X98171048Y-99964381D01*
X98266286Y-100012000D01*
X98361524Y-100107238D01*
X98409143Y-100297714D01*
X98409143Y-100631048D01*
X98361524Y-100821524D01*
X98266286Y-100916762D01*
X98171048Y-100964381D01*
X97980571Y-100964381D01*
X98790095Y-100059619D02*
X98837714Y-100012000D01*
X98932952Y-99964381D01*
X99171048Y-99964381D01*
X99266286Y-100012000D01*
X99313905Y-100059619D01*
X99361524Y-100154857D01*
X99361524Y-100250095D01*
X99313905Y-100392952D01*
X98742476Y-100964381D01*
X99361524Y-100964381D01*
X98456762Y-95979619D02*
X98361524Y-95932000D01*
X98266286Y-95836762D01*
X98123429Y-95693905D01*
X98028190Y-95646286D01*
X97932952Y-95646286D01*
X97980571Y-95884381D02*
X97885333Y-95836762D01*
X97790095Y-95741524D01*
X97742476Y-95551048D01*
X97742476Y-95217714D01*
X97790095Y-95027238D01*
X97885333Y-94932000D01*
X97980571Y-94884381D01*
X98171048Y-94884381D01*
X98266286Y-94932000D01*
X98361524Y-95027238D01*
X98409143Y-95217714D01*
X98409143Y-95551048D01*
X98361524Y-95741524D01*
X98266286Y-95836762D01*
X98171048Y-95884381D01*
X97980571Y-95884381D01*
X98742476Y-94884381D02*
X99361524Y-94884381D01*
X99028190Y-95265333D01*
X99171048Y-95265333D01*
X99266286Y-95312952D01*
X99313905Y-95360571D01*
X99361524Y-95455810D01*
X99361524Y-95693905D01*
X99313905Y-95789143D01*
X99266286Y-95836762D01*
X99171048Y-95884381D01*
X98885333Y-95884381D01*
X98790095Y-95836762D01*
X98742476Y-95789143D01*
X101250762Y-90899619D02*
X101155524Y-90852000D01*
X101060286Y-90756762D01*
X100917429Y-90613905D01*
X100822190Y-90566286D01*
X100726952Y-90566286D01*
X100774571Y-90804381D02*
X100679333Y-90756762D01*
X100584095Y-90661524D01*
X100536476Y-90471048D01*
X100536476Y-90137714D01*
X100584095Y-89947238D01*
X100679333Y-89852000D01*
X100774571Y-89804381D01*
X100965048Y-89804381D01*
X101060286Y-89852000D01*
X101155524Y-89947238D01*
X101203143Y-90137714D01*
X101203143Y-90471048D01*
X101155524Y-90661524D01*
X101060286Y-90756762D01*
X100965048Y-90804381D01*
X100774571Y-90804381D01*
X102060286Y-90137714D02*
X102060286Y-90804381D01*
X101822190Y-89756762D02*
X101584095Y-90471048D01*
X102203143Y-90471048D01*
X109886762Y-112379619D02*
X109791524Y-112332000D01*
X109696286Y-112236762D01*
X109553429Y-112093905D01*
X109458190Y-112046286D01*
X109362952Y-112046286D01*
X109410571Y-112284381D02*
X109315333Y-112236762D01*
X109220095Y-112141524D01*
X109172476Y-111951048D01*
X109172476Y-111617714D01*
X109220095Y-111427238D01*
X109315333Y-111332000D01*
X109410571Y-111284381D01*
X109601048Y-111284381D01*
X109696286Y-111332000D01*
X109791524Y-111427238D01*
X109839143Y-111617714D01*
X109839143Y-111951048D01*
X109791524Y-112141524D01*
X109696286Y-112236762D01*
X109601048Y-112284381D01*
X109410571Y-112284381D01*
X110743905Y-111284381D02*
X110267714Y-111284381D01*
X110220095Y-111760571D01*
X110267714Y-111712952D01*
X110362952Y-111665333D01*
X110601048Y-111665333D01*
X110696286Y-111712952D01*
X110743905Y-111760571D01*
X110791524Y-111855810D01*
X110791524Y-112093905D01*
X110743905Y-112189143D01*
X110696286Y-112236762D01*
X110601048Y-112284381D01*
X110362952Y-112284381D01*
X110267714Y-112236762D01*
X110220095Y-112189143D01*
X109886762Y-107299619D02*
X109791524Y-107252000D01*
X109696286Y-107156762D01*
X109553429Y-107013905D01*
X109458190Y-106966286D01*
X109362952Y-106966286D01*
X109410571Y-107204381D02*
X109315333Y-107156762D01*
X109220095Y-107061524D01*
X109172476Y-106871048D01*
X109172476Y-106537714D01*
X109220095Y-106347238D01*
X109315333Y-106252000D01*
X109410571Y-106204381D01*
X109601048Y-106204381D01*
X109696286Y-106252000D01*
X109791524Y-106347238D01*
X109839143Y-106537714D01*
X109839143Y-106871048D01*
X109791524Y-107061524D01*
X109696286Y-107156762D01*
X109601048Y-107204381D01*
X109410571Y-107204381D01*
X110696286Y-106204381D02*
X110505809Y-106204381D01*
X110410571Y-106252000D01*
X110362952Y-106299619D01*
X110267714Y-106442476D01*
X110220095Y-106632952D01*
X110220095Y-107013905D01*
X110267714Y-107109143D01*
X110315333Y-107156762D01*
X110410571Y-107204381D01*
X110601048Y-107204381D01*
X110696286Y-107156762D01*
X110743905Y-107109143D01*
X110791524Y-107013905D01*
X110791524Y-106775810D01*
X110743905Y-106680571D01*
X110696286Y-106632952D01*
X110601048Y-106585333D01*
X110410571Y-106585333D01*
X110315333Y-106632952D01*
X110267714Y-106680571D01*
X110220095Y-106775810D01*
X109886762Y-102219619D02*
X109791524Y-102172000D01*
X109696286Y-102076762D01*
X109553429Y-101933905D01*
X109458190Y-101886286D01*
X109362952Y-101886286D01*
X109410571Y-102124381D02*
X109315333Y-102076762D01*
X109220095Y-101981524D01*
X109172476Y-101791048D01*
X109172476Y-101457714D01*
X109220095Y-101267238D01*
X109315333Y-101172000D01*
X109410571Y-101124381D01*
X109601048Y-101124381D01*
X109696286Y-101172000D01*
X109791524Y-101267238D01*
X109839143Y-101457714D01*
X109839143Y-101791048D01*
X109791524Y-101981524D01*
X109696286Y-102076762D01*
X109601048Y-102124381D01*
X109410571Y-102124381D01*
X110172476Y-101124381D02*
X110839143Y-101124381D01*
X110410571Y-102124381D01*
X112426762Y-90899619D02*
X112331524Y-90852000D01*
X112236286Y-90756762D01*
X112093429Y-90613905D01*
X111998190Y-90566286D01*
X111902952Y-90566286D01*
X111950571Y-90804381D02*
X111855333Y-90756762D01*
X111760095Y-90661524D01*
X111712476Y-90471048D01*
X111712476Y-90137714D01*
X111760095Y-89947238D01*
X111855333Y-89852000D01*
X111950571Y-89804381D01*
X112141048Y-89804381D01*
X112236286Y-89852000D01*
X112331524Y-89947238D01*
X112379143Y-90137714D01*
X112379143Y-90471048D01*
X112331524Y-90661524D01*
X112236286Y-90756762D01*
X112141048Y-90804381D01*
X111950571Y-90804381D01*
X112950571Y-90232952D02*
X112855333Y-90185333D01*
X112807714Y-90137714D01*
X112760095Y-90042476D01*
X112760095Y-89994857D01*
X112807714Y-89899619D01*
X112855333Y-89852000D01*
X112950571Y-89804381D01*
X113141048Y-89804381D01*
X113236286Y-89852000D01*
X113283905Y-89899619D01*
X113331524Y-89994857D01*
X113331524Y-90042476D01*
X113283905Y-90137714D01*
X113236286Y-90185333D01*
X113141048Y-90232952D01*
X112950571Y-90232952D01*
X112855333Y-90280571D01*
X112807714Y-90328190D01*
X112760095Y-90423429D01*
X112760095Y-90613905D01*
X112807714Y-90709143D01*
X112855333Y-90756762D01*
X112950571Y-90804381D01*
X113141048Y-90804381D01*
X113236286Y-90756762D01*
X113283905Y-90709143D01*
X113331524Y-90613905D01*
X113331524Y-90423429D01*
X113283905Y-90328190D01*
X113236286Y-90280571D01*
X113141048Y-90232952D01*
X127666762Y-106139619D02*
X127571524Y-106092000D01*
X127476286Y-105996762D01*
X127333429Y-105853905D01*
X127238190Y-105806286D01*
X127142952Y-105806286D01*
X127190571Y-106044381D02*
X127095333Y-105996762D01*
X127000095Y-105901524D01*
X126952476Y-105711048D01*
X126952476Y-105377714D01*
X127000095Y-105187238D01*
X127095333Y-105092000D01*
X127190571Y-105044381D01*
X127381048Y-105044381D01*
X127476286Y-105092000D01*
X127571524Y-105187238D01*
X127619143Y-105377714D01*
X127619143Y-105711048D01*
X127571524Y-105901524D01*
X127476286Y-105996762D01*
X127381048Y-106044381D01*
X127190571Y-106044381D01*
X128095333Y-106044381D02*
X128285809Y-106044381D01*
X128381048Y-105996762D01*
X128428667Y-105949143D01*
X128523905Y-105806286D01*
X128571524Y-105615810D01*
X128571524Y-105234857D01*
X128523905Y-105139619D01*
X128476286Y-105092000D01*
X128381048Y-105044381D01*
X128190571Y-105044381D01*
X128095333Y-105092000D01*
X128047714Y-105139619D01*
X128000095Y-105234857D01*
X128000095Y-105472952D01*
X128047714Y-105568190D01*
X128095333Y-105615810D01*
X128190571Y-105663429D01*
X128381048Y-105663429D01*
X128476286Y-105615810D01*
X128523905Y-105568190D01*
X128571524Y-105472952D01*
X127190572Y-101059619D02*
X127095334Y-101012000D01*
X127000096Y-100916762D01*
X126857239Y-100773905D01*
X126762000Y-100726286D01*
X126666762Y-100726286D01*
X126714381Y-100964381D02*
X126619143Y-100916762D01*
X126523905Y-100821524D01*
X126476286Y-100631048D01*
X126476286Y-100297714D01*
X126523905Y-100107238D01*
X126619143Y-100012000D01*
X126714381Y-99964381D01*
X126904858Y-99964381D01*
X127000096Y-100012000D01*
X127095334Y-100107238D01*
X127142953Y-100297714D01*
X127142953Y-100631048D01*
X127095334Y-100821524D01*
X127000096Y-100916762D01*
X126904858Y-100964381D01*
X126714381Y-100964381D01*
X128095334Y-100964381D02*
X127523905Y-100964381D01*
X127809619Y-100964381D02*
X127809619Y-99964381D01*
X127714381Y-100107238D01*
X127619143Y-100202476D01*
X127523905Y-100250095D01*
X128714381Y-99964381D02*
X128809620Y-99964381D01*
X128904858Y-100012000D01*
X128952477Y-100059619D01*
X129000096Y-100154857D01*
X129047715Y-100345333D01*
X129047715Y-100583429D01*
X129000096Y-100773905D01*
X128952477Y-100869143D01*
X128904858Y-100916762D01*
X128809620Y-100964381D01*
X128714381Y-100964381D01*
X128619143Y-100916762D01*
X128571524Y-100869143D01*
X128523905Y-100773905D01*
X128476286Y-100583429D01*
X128476286Y-100345333D01*
X128523905Y-100154857D01*
X128571524Y-100059619D01*
X128619143Y-100012000D01*
X128714381Y-99964381D01*
X127190572Y-95979619D02*
X127095334Y-95932000D01*
X127000096Y-95836762D01*
X126857239Y-95693905D01*
X126762000Y-95646286D01*
X126666762Y-95646286D01*
X126714381Y-95884381D02*
X126619143Y-95836762D01*
X126523905Y-95741524D01*
X126476286Y-95551048D01*
X126476286Y-95217714D01*
X126523905Y-95027238D01*
X126619143Y-94932000D01*
X126714381Y-94884381D01*
X126904858Y-94884381D01*
X127000096Y-94932000D01*
X127095334Y-95027238D01*
X127142953Y-95217714D01*
X127142953Y-95551048D01*
X127095334Y-95741524D01*
X127000096Y-95836762D01*
X126904858Y-95884381D01*
X126714381Y-95884381D01*
X128095334Y-95884381D02*
X127523905Y-95884381D01*
X127809619Y-95884381D02*
X127809619Y-94884381D01*
X127714381Y-95027238D01*
X127619143Y-95122476D01*
X127523905Y-95170095D01*
X129047715Y-95884381D02*
X128476286Y-95884381D01*
X128762000Y-95884381D02*
X128762000Y-94884381D01*
X128666762Y-95027238D01*
X128571524Y-95122476D01*
X128476286Y-95170095D01*
X124650572Y-90899619D02*
X124555334Y-90852000D01*
X124460096Y-90756762D01*
X124317239Y-90613905D01*
X124222000Y-90566286D01*
X124126762Y-90566286D01*
X124174381Y-90804381D02*
X124079143Y-90756762D01*
X123983905Y-90661524D01*
X123936286Y-90471048D01*
X123936286Y-90137714D01*
X123983905Y-89947238D01*
X124079143Y-89852000D01*
X124174381Y-89804381D01*
X124364858Y-89804381D01*
X124460096Y-89852000D01*
X124555334Y-89947238D01*
X124602953Y-90137714D01*
X124602953Y-90471048D01*
X124555334Y-90661524D01*
X124460096Y-90756762D01*
X124364858Y-90804381D01*
X124174381Y-90804381D01*
X125555334Y-90804381D02*
X124983905Y-90804381D01*
X125269619Y-90804381D02*
X125269619Y-89804381D01*
X125174381Y-89947238D01*
X125079143Y-90042476D01*
X124983905Y-90090095D01*
X125936286Y-89899619D02*
X125983905Y-89852000D01*
X126079143Y-89804381D01*
X126317239Y-89804381D01*
X126412477Y-89852000D01*
X126460096Y-89899619D01*
X126507715Y-89994857D01*
X126507715Y-90090095D01*
X126460096Y-90232952D01*
X125888667Y-90804381D01*
X126507715Y-90804381D01*
X140398572Y-102219619D02*
X140303334Y-102172000D01*
X140208096Y-102076762D01*
X140065239Y-101933905D01*
X139970000Y-101886286D01*
X139874762Y-101886286D01*
X139922381Y-102124381D02*
X139827143Y-102076762D01*
X139731905Y-101981524D01*
X139684286Y-101791048D01*
X139684286Y-101457714D01*
X139731905Y-101267238D01*
X139827143Y-101172000D01*
X139922381Y-101124381D01*
X140112858Y-101124381D01*
X140208096Y-101172000D01*
X140303334Y-101267238D01*
X140350953Y-101457714D01*
X140350953Y-101791048D01*
X140303334Y-101981524D01*
X140208096Y-102076762D01*
X140112858Y-102124381D01*
X139922381Y-102124381D01*
X141303334Y-102124381D02*
X140731905Y-102124381D01*
X141017619Y-102124381D02*
X141017619Y-101124381D01*
X140922381Y-101267238D01*
X140827143Y-101362476D01*
X140731905Y-101410095D01*
X141636667Y-101124381D02*
X142255715Y-101124381D01*
X141922381Y-101505333D01*
X142065239Y-101505333D01*
X142160477Y-101552952D01*
X142208096Y-101600571D01*
X142255715Y-101695810D01*
X142255715Y-101933905D01*
X142208096Y-102029143D01*
X142160477Y-102076762D01*
X142065239Y-102124381D01*
X141779524Y-102124381D01*
X141684286Y-102076762D01*
X141636667Y-102029143D01*
X140398572Y-107299619D02*
X140303334Y-107252000D01*
X140208096Y-107156762D01*
X140065239Y-107013905D01*
X139970000Y-106966286D01*
X139874762Y-106966286D01*
X139922381Y-107204381D02*
X139827143Y-107156762D01*
X139731905Y-107061524D01*
X139684286Y-106871048D01*
X139684286Y-106537714D01*
X139731905Y-106347238D01*
X139827143Y-106252000D01*
X139922381Y-106204381D01*
X140112858Y-106204381D01*
X140208096Y-106252000D01*
X140303334Y-106347238D01*
X140350953Y-106537714D01*
X140350953Y-106871048D01*
X140303334Y-107061524D01*
X140208096Y-107156762D01*
X140112858Y-107204381D01*
X139922381Y-107204381D01*
X141303334Y-107204381D02*
X140731905Y-107204381D01*
X141017619Y-107204381D02*
X141017619Y-106204381D01*
X140922381Y-106347238D01*
X140827143Y-106442476D01*
X140731905Y-106490095D01*
X142160477Y-106537714D02*
X142160477Y-107204381D01*
X141922381Y-106156762D02*
X141684286Y-106871048D01*
X142303334Y-106871048D01*
X140398572Y-112379619D02*
X140303334Y-112332000D01*
X140208096Y-112236762D01*
X140065239Y-112093905D01*
X139970000Y-112046286D01*
X139874762Y-112046286D01*
X139922381Y-112284381D02*
X139827143Y-112236762D01*
X139731905Y-112141524D01*
X139684286Y-111951048D01*
X139684286Y-111617714D01*
X139731905Y-111427238D01*
X139827143Y-111332000D01*
X139922381Y-111284381D01*
X140112858Y-111284381D01*
X140208096Y-111332000D01*
X140303334Y-111427238D01*
X140350953Y-111617714D01*
X140350953Y-111951048D01*
X140303334Y-112141524D01*
X140208096Y-112236762D01*
X140112858Y-112284381D01*
X139922381Y-112284381D01*
X141303334Y-112284381D02*
X140731905Y-112284381D01*
X141017619Y-112284381D02*
X141017619Y-111284381D01*
X140922381Y-111427238D01*
X140827143Y-111522476D01*
X140731905Y-111570095D01*
X142208096Y-111284381D02*
X141731905Y-111284381D01*
X141684286Y-111760571D01*
X141731905Y-111712952D01*
X141827143Y-111665333D01*
X142065239Y-111665333D01*
X142160477Y-111712952D01*
X142208096Y-111760571D01*
X142255715Y-111855810D01*
X142255715Y-112093905D01*
X142208096Y-112189143D01*
X142160477Y-112236762D01*
X142065239Y-112284381D01*
X141827143Y-112284381D01*
X141731905Y-112236762D01*
X141684286Y-112189143D01*
X142938572Y-90645619D02*
X142843334Y-90598000D01*
X142748096Y-90502762D01*
X142605239Y-90359905D01*
X142510000Y-90312286D01*
X142414762Y-90312286D01*
X142462381Y-90550381D02*
X142367143Y-90502762D01*
X142271905Y-90407524D01*
X142224286Y-90217048D01*
X142224286Y-89883714D01*
X142271905Y-89693238D01*
X142367143Y-89598000D01*
X142462381Y-89550381D01*
X142652858Y-89550381D01*
X142748096Y-89598000D01*
X142843334Y-89693238D01*
X142890953Y-89883714D01*
X142890953Y-90217048D01*
X142843334Y-90407524D01*
X142748096Y-90502762D01*
X142652858Y-90550381D01*
X142462381Y-90550381D01*
X143843334Y-90550381D02*
X143271905Y-90550381D01*
X143557619Y-90550381D02*
X143557619Y-89550381D01*
X143462381Y-89693238D01*
X143367143Y-89788476D01*
X143271905Y-89836095D01*
X144700477Y-89550381D02*
X144510000Y-89550381D01*
X144414762Y-89598000D01*
X144367143Y-89645619D01*
X144271905Y-89788476D01*
X144224286Y-89978952D01*
X144224286Y-90359905D01*
X144271905Y-90455143D01*
X144319524Y-90502762D01*
X144414762Y-90550381D01*
X144605239Y-90550381D01*
X144700477Y-90502762D01*
X144748096Y-90455143D01*
X144795715Y-90359905D01*
X144795715Y-90121810D01*
X144748096Y-90026571D01*
X144700477Y-89978952D01*
X144605239Y-89931333D01*
X144414762Y-89931333D01*
X144319524Y-89978952D01*
X144271905Y-90026571D01*
X144224286Y-90121810D01*
M02*
