M48
;DRILL file {KiCad 4.0.6} date 01/15/18 08:07:27
;FORMAT={-:-/ absolute / inch / decimal}
FMAT,2
INCH,TZ
T1C0.016
T2C0.032
T3C0.039
T4C0.125
%
G90
G05
M72
T1
X4.11Y-3.82
X4.11Y-3.93
X4.67Y-4.07
X4.67Y-4.28
X4.7Y-3.01
X4.75Y-3.05
X5.06Y-2.76
X5.15Y-3.5
X5.35Y-4.01
X5.43Y-2.97
X5.76Y-3.78
T2
X4.3Y-2.69
X4.4Y-2.69
X4.5Y-2.69
X4.6Y-2.69
X4.66Y-4.59
X4.7Y-2.69
X4.76Y-4.59
X4.8Y-2.69
X4.86Y-4.59
X4.9Y-2.69
X4.96Y-4.59
X5.Y-2.69
X5.06Y-4.59
X5.16Y-2.69
X5.16Y-4.59
X5.26Y-2.69
X5.36Y-2.69
X5.36Y-4.59
X5.46Y-2.69
X5.46Y-4.59
X5.56Y-2.69
X5.56Y-4.59
X5.66Y-2.69
X5.66Y-4.59
X5.76Y-2.69
X5.76Y-4.59
X5.86Y-2.69
X5.86Y-4.59
T3
X3.49Y-2.96
X3.49Y-3.06
X3.49Y-3.16
X3.49Y-3.26
X3.49Y-3.36
X3.49Y-3.46
X3.49Y-3.56
X3.49Y-3.66
X3.49Y-3.76
X3.49Y-3.86
X3.49Y-3.96
X3.49Y-4.06
X3.49Y-4.16
X3.49Y-4.26
X3.49Y-4.36
X3.49Y-4.46
X3.49Y-4.56
X3.78Y-3.88
X3.78Y-4.08
X3.78Y-4.28
X3.88Y-3.88
X3.88Y-4.08
X3.88Y-4.28
X3.89Y-3.68
X3.98Y-3.88
X3.98Y-4.08
X3.98Y-4.28
X3.99Y-3.68
X4.09Y-3.68
X4.23Y-3.88
X4.23Y-4.08
X4.23Y-4.28
X4.33Y-3.68
X4.33Y-3.88
X4.33Y-4.08
X4.33Y-4.28
X4.43Y-3.68
X4.43Y-3.88
X4.43Y-4.08
X4.43Y-4.28
X4.53Y-3.68
X4.83Y-3.68
X4.93Y-3.68
X4.93Y-3.88
X4.93Y-4.08
X4.93Y-4.28
X5.03Y-3.68
X5.03Y-3.88
X5.03Y-4.08
X5.03Y-4.28
X5.13Y-3.88
X5.13Y-4.08
X5.13Y-4.28
X5.45Y-3.88
X5.45Y-4.08
X5.45Y-4.28
X5.5241Y-2.8628
X5.5241Y-3.04
X5.5241Y-3.2228
X5.5241Y-3.4
X5.55Y-3.67
X5.55Y-3.88
X5.55Y-4.08
X5.55Y-4.28
X5.65Y-3.67
X5.65Y-3.88
X5.65Y-4.08
X5.65Y-4.28
X5.75Y-3.67
X5.78Y-2.8628
X5.78Y-3.04
X5.78Y-3.2228
X5.78Y-3.4
T4
X3.91Y-4.59
X3.96Y-2.69
X5.96Y-3.29
X5.96Y-4.39
T3
X3.5338Y-2.6306G85X3.5338Y-2.7094
G05
X3.6125Y-2.855G85X3.6913Y-2.855
G05
X3.77Y-2.6306G85X3.77Y-2.7094
G05
T0
M30
