G04 #@! TF.FileFunction,Copper,L2,Bot,Signal*
%FSLAX46Y46*%
G04 Gerber Fmt 4.6, Leading zero omitted, Abs format (unit mm)*
G04 Created by KiCad (PCBNEW 4.0.6) date 01/15/18 08:07:30*
%MOMM*%
%LPD*%
G01*
G04 APERTURE LIST*
%ADD10C,0.100000*%
%ADD11O,1.524000X2.540000*%
%ADD12C,3.937000*%
%ADD13R,3.500000X3.500000*%
%ADD14R,1.700000X1.700000*%
%ADD15O,1.700000X1.700000*%
%ADD16C,1.700000*%
%ADD17R,1.800000X1.800000*%
%ADD18O,1.800000X1.800000*%
%ADD19C,0.600000*%
%ADD20C,0.200000*%
%ADD21C,1.000000*%
G04 APERTURE END LIST*
D10*
D11*
X148844000Y-116586000D03*
X146304000Y-116586000D03*
X143764000Y-116586000D03*
X136144000Y-116586000D03*
X138684000Y-116586000D03*
X141224000Y-116586000D03*
X131064000Y-116586000D03*
X128524000Y-116586000D03*
X125984000Y-116586000D03*
X120904000Y-116586000D03*
X118364000Y-116586000D03*
X148844000Y-68326000D03*
X146304000Y-68326000D03*
X143764000Y-68326000D03*
X141224000Y-68326000D03*
X138684000Y-68326000D03*
X136144000Y-68326000D03*
X133604000Y-68326000D03*
X131064000Y-68326000D03*
X127000000Y-68326000D03*
X124460000Y-68326000D03*
X121920000Y-68326000D03*
X119380000Y-68326000D03*
X116840000Y-68326000D03*
X114300000Y-68326000D03*
X111760000Y-68326000D03*
X109220000Y-68326000D03*
X123444000Y-116586000D03*
D12*
X151384000Y-111506000D03*
X151384000Y-83566000D03*
X100584000Y-68326000D03*
X99314000Y-116586000D03*
D13*
X95758000Y-67818000D03*
X89758000Y-67818000D03*
X92758000Y-72518000D03*
D14*
X88646000Y-75184000D03*
D15*
X88646000Y-77724000D03*
X88646000Y-80264000D03*
X88646000Y-82804000D03*
X88646000Y-85344000D03*
X88646000Y-87884000D03*
X88646000Y-90424000D03*
X88646000Y-92964000D03*
X88646000Y-95504000D03*
X88646000Y-98044000D03*
X88646000Y-100584000D03*
X88646000Y-103124000D03*
X88646000Y-105664000D03*
X88646000Y-108204000D03*
X88646000Y-110744000D03*
X88646000Y-113284000D03*
X88646000Y-115824000D03*
D16*
X140312000Y-81860000D03*
X146812000Y-81860000D03*
X140312000Y-86360000D03*
X146812000Y-86360000D03*
X140312000Y-72716000D03*
X146812000Y-72716000D03*
X140312000Y-77216000D03*
X146812000Y-77216000D03*
D17*
X96012000Y-108712000D03*
D18*
X98552000Y-108712000D03*
X101092000Y-108712000D03*
D17*
X96012000Y-103632000D03*
D18*
X98552000Y-103632000D03*
X101092000Y-103632000D03*
D17*
X96012000Y-98552000D03*
D18*
X98552000Y-98552000D03*
X101092000Y-98552000D03*
D17*
X98806000Y-93472000D03*
D18*
X101346000Y-93472000D03*
X103886000Y-93472000D03*
D17*
X112522000Y-108712000D03*
D18*
X109982000Y-108712000D03*
X107442000Y-108712000D03*
D17*
X112522000Y-103632000D03*
D18*
X109982000Y-103632000D03*
X107442000Y-103632000D03*
D17*
X112522000Y-98552000D03*
D18*
X109982000Y-98552000D03*
X107442000Y-98552000D03*
D17*
X109982000Y-93472000D03*
D18*
X112522000Y-93472000D03*
X115062000Y-93472000D03*
D17*
X125222000Y-108712000D03*
D18*
X127762000Y-108712000D03*
X130302000Y-108712000D03*
D17*
X125222000Y-103632000D03*
D18*
X127762000Y-103632000D03*
X130302000Y-103632000D03*
D17*
X125222000Y-98552000D03*
D18*
X127762000Y-98552000D03*
X130302000Y-98552000D03*
D17*
X122682000Y-93472000D03*
D18*
X125222000Y-93472000D03*
X127762000Y-93472000D03*
D17*
X143510000Y-98552000D03*
D18*
X140970000Y-98552000D03*
X138430000Y-98552000D03*
D17*
X143510000Y-103632000D03*
D18*
X140970000Y-103632000D03*
X138430000Y-103632000D03*
D17*
X143510000Y-108712000D03*
D18*
X140970000Y-108712000D03*
X138430000Y-108712000D03*
D17*
X140970000Y-93218000D03*
D18*
X143510000Y-93218000D03*
X146050000Y-93218000D03*
D19*
X146304000Y-96012000D03*
X119380000Y-76454000D03*
X130810000Y-88900000D03*
X104394000Y-97028000D03*
X104394000Y-99822000D03*
X135890000Y-101854000D03*
X137922000Y-75438000D03*
X120650000Y-77470000D03*
X128524000Y-70104000D03*
X118618000Y-108712000D03*
X118618000Y-103378000D03*
D20*
X88646000Y-77724000D02*
X87376000Y-77724000D01*
X129794000Y-118364000D02*
X131064000Y-117094000D01*
X116840000Y-118364000D02*
X129794000Y-118364000D01*
X116840000Y-115570000D02*
X116840000Y-118364000D01*
X115354002Y-114084002D02*
X116840000Y-115570000D01*
X94449998Y-114084002D02*
X115354002Y-114084002D01*
X90678000Y-117856000D02*
X94449998Y-114084002D01*
X87122000Y-117856000D02*
X90678000Y-117856000D01*
X86614000Y-117348000D02*
X87122000Y-117856000D01*
X86614000Y-78486000D02*
X86614000Y-117348000D01*
X87376000Y-77724000D02*
X86614000Y-78486000D01*
X131064000Y-117094000D02*
X131064000Y-116586000D01*
D21*
X128524000Y-116586000D02*
X125984000Y-116586000D01*
X128524000Y-116586000D02*
X128524000Y-115062000D01*
X149098000Y-88646000D02*
X146812000Y-88646000D01*
X150114000Y-89662000D02*
X149098000Y-88646000D01*
X150114000Y-108204000D02*
X150114000Y-89662000D01*
X148336000Y-109982000D02*
X150114000Y-108204000D01*
X148336000Y-112268000D02*
X148336000Y-109982000D01*
X146558000Y-114046000D02*
X148336000Y-112268000D01*
X129540000Y-114046000D02*
X146558000Y-114046000D01*
X128524000Y-115062000D02*
X129540000Y-114046000D01*
X98806000Y-93472000D02*
X98806000Y-91440000D01*
X98806000Y-91440000D02*
X98044000Y-90678000D01*
X146812000Y-77216000D02*
X146812000Y-72716000D01*
X146812000Y-81860000D02*
X146812000Y-77216000D01*
X146812000Y-86360000D02*
X146812000Y-81860000D01*
X139700000Y-90678000D02*
X145288000Y-90678000D01*
X146812000Y-89154000D02*
X146812000Y-88646000D01*
X146812000Y-88646000D02*
X146812000Y-86360000D01*
X145288000Y-90678000D02*
X146812000Y-89154000D01*
X121920000Y-90678000D02*
X139700000Y-90678000D01*
X140970000Y-91948000D02*
X140970000Y-93218000D01*
X139700000Y-90678000D02*
X140970000Y-91948000D01*
X109474000Y-90678000D02*
X121920000Y-90678000D01*
X122682000Y-91440000D02*
X122682000Y-93472000D01*
X121920000Y-90678000D02*
X122682000Y-91440000D01*
X109982000Y-93472000D02*
X109982000Y-91186000D01*
X94996000Y-90678000D02*
X93472000Y-89154000D01*
X109474000Y-90678000D02*
X98044000Y-90678000D01*
X98044000Y-90678000D02*
X94996000Y-90678000D01*
X109982000Y-91186000D02*
X109474000Y-90678000D01*
X89758000Y-67818000D02*
X89758000Y-69518000D01*
X89758000Y-69518000D02*
X93472000Y-73232000D01*
X93472000Y-73232000D02*
X93472000Y-89154000D01*
X140970000Y-97282000D02*
X140970000Y-98552000D01*
X141986000Y-96266000D02*
X140970000Y-97282000D01*
X146050000Y-96266000D02*
X141986000Y-96266000D01*
X146304000Y-96012000D02*
X146050000Y-96266000D01*
X88646000Y-95504000D02*
X108204000Y-95504000D01*
X109982000Y-97282000D02*
X109982000Y-98552000D01*
X108204000Y-95504000D02*
X109982000Y-97282000D01*
X88646000Y-98044000D02*
X91186000Y-98044000D01*
X109982000Y-102108000D02*
X109982000Y-103632000D01*
X108966000Y-101092000D02*
X109982000Y-102108000D01*
X93472000Y-101092000D02*
X108966000Y-101092000D01*
X92456000Y-100076000D02*
X93472000Y-101092000D01*
X92456000Y-99314000D02*
X92456000Y-100076000D01*
X91186000Y-98044000D02*
X92456000Y-99314000D01*
X88646000Y-100584000D02*
X90424000Y-100584000D01*
X109982000Y-106934000D02*
X109982000Y-108712000D01*
X108966000Y-105918000D02*
X109982000Y-106934000D01*
X92202000Y-105918000D02*
X108966000Y-105918000D01*
X91186000Y-104902000D02*
X92202000Y-105918000D01*
X91186000Y-101346000D02*
X91186000Y-104902000D01*
X90424000Y-100584000D02*
X91186000Y-101346000D01*
X88646000Y-108204000D02*
X89408000Y-108204000D01*
X89408000Y-108204000D02*
X91948000Y-110744000D01*
X91948000Y-110744000D02*
X119634000Y-110744000D01*
X119634000Y-110744000D02*
X120650000Y-109728000D01*
X120650000Y-109728000D02*
X120650000Y-101346000D01*
X120650000Y-101346000D02*
X121412000Y-100584000D01*
X121412000Y-100584000D02*
X126492000Y-100584000D01*
X126492000Y-100584000D02*
X127508000Y-100584000D01*
X127508000Y-100584000D02*
X128016000Y-100076000D01*
X128016000Y-100076000D02*
X128016000Y-98806000D01*
X128016000Y-98806000D02*
X127762000Y-98552000D01*
X88646000Y-110744000D02*
X90170000Y-110744000D01*
X127762000Y-105156000D02*
X127762000Y-103632000D01*
X127254000Y-105664000D02*
X127762000Y-105156000D01*
X122682000Y-105664000D02*
X127254000Y-105664000D01*
X121920000Y-106426000D02*
X122682000Y-105664000D01*
X121920000Y-111252000D02*
X121920000Y-106426000D01*
X121088002Y-112083998D02*
X121920000Y-111252000D01*
X91509998Y-112083998D02*
X121088002Y-112083998D01*
X90170000Y-110744000D02*
X91509998Y-112083998D01*
X88646000Y-113284000D02*
X126492000Y-113284000D01*
X127762000Y-112014000D02*
X127762000Y-108712000D01*
X126492000Y-113284000D02*
X127762000Y-112014000D01*
D20*
X119380000Y-86106000D02*
X119380000Y-76454000D01*
X121666000Y-88392000D02*
X119380000Y-86106000D01*
X130302000Y-88392000D02*
X121666000Y-88392000D01*
X130810000Y-88900000D02*
X130302000Y-88392000D01*
D21*
X130302000Y-108712000D02*
X133604000Y-108712000D01*
X135382000Y-98552000D02*
X138430000Y-98552000D01*
X134366000Y-99568000D02*
X135382000Y-98552000D01*
X134366000Y-107950000D02*
X134366000Y-99568000D01*
X133604000Y-108712000D02*
X134366000Y-107950000D01*
D20*
X104394000Y-99822000D02*
X104394000Y-97028000D01*
D21*
X137414000Y-108712000D02*
X138430000Y-108712000D01*
X135890000Y-107188000D02*
X137414000Y-108712000D01*
X135890000Y-101854000D02*
X135890000Y-107188000D01*
D20*
X136906000Y-76454000D02*
X137922000Y-75438000D01*
X121666000Y-76454000D02*
X136906000Y-76454000D01*
X120650000Y-77470000D02*
X121666000Y-76454000D01*
D21*
X112522000Y-98552000D02*
X112522000Y-103632000D01*
X112522000Y-103632000D02*
X112522000Y-108712000D01*
X112522000Y-93472000D02*
X112522000Y-98552000D01*
D20*
X136144000Y-70104000D02*
X136144000Y-68326000D01*
X135636000Y-70612000D02*
X136144000Y-70104000D01*
X129032000Y-70612000D02*
X135636000Y-70612000D01*
X128524000Y-70104000D02*
X129032000Y-70612000D01*
D21*
X118618000Y-103378000D02*
X118618000Y-108712000D01*
X125222000Y-98552000D02*
X120904000Y-98552000D01*
X118618000Y-100838000D02*
X118618000Y-103378000D01*
X120904000Y-98552000D02*
X118618000Y-100838000D01*
X125222000Y-98552000D02*
X125222000Y-93472000D01*
M02*
